%TF.GenerationSoftware,KiCad,Pcbnew,(6.0.9)*%
%TF.CreationDate,2025-06-12T12:44:06-07:00*%
%TF.ProjectId,STM32L4_breakout,53544d33-324c-4345-9f62-7265616b6f75,rev?*%
%TF.SameCoordinates,Original*%
%TF.FileFunction,Legend,Top*%
%TF.FilePolarity,Positive*%
%FSLAX46Y46*%
G04 Gerber Fmt 4.6, Leading zero omitted, Abs format (unit mm)*
G04 Created by KiCad (PCBNEW (6.0.9)) date 2025-06-12 12:44:06*
%MOMM*%
%LPD*%
G01*
G04 APERTURE LIST*
%ADD10C,0.150000*%
%ADD11C,0.120000*%
G04 APERTURE END LIST*
D10*
%TO.C,U2*%
X138758095Y-103666380D02*
X138758095Y-104475904D01*
X138805714Y-104571142D01*
X138853333Y-104618761D01*
X138948571Y-104666380D01*
X139139047Y-104666380D01*
X139234285Y-104618761D01*
X139281904Y-104571142D01*
X139329523Y-104475904D01*
X139329523Y-103666380D01*
X139758095Y-103761619D02*
X139805714Y-103714000D01*
X139900952Y-103666380D01*
X140139047Y-103666380D01*
X140234285Y-103714000D01*
X140281904Y-103761619D01*
X140329523Y-103856857D01*
X140329523Y-103952095D01*
X140281904Y-104094952D01*
X139710476Y-104666380D01*
X140329523Y-104666380D01*
%TO.C,R15*%
X134231142Y-74112380D02*
X133897809Y-73636190D01*
X133659714Y-74112380D02*
X133659714Y-73112380D01*
X134040666Y-73112380D01*
X134135904Y-73160000D01*
X134183523Y-73207619D01*
X134231142Y-73302857D01*
X134231142Y-73445714D01*
X134183523Y-73540952D01*
X134135904Y-73588571D01*
X134040666Y-73636190D01*
X133659714Y-73636190D01*
X135183523Y-74112380D02*
X134612095Y-74112380D01*
X134897809Y-74112380D02*
X134897809Y-73112380D01*
X134802571Y-73255238D01*
X134707333Y-73350476D01*
X134612095Y-73398095D01*
X136088285Y-73112380D02*
X135612095Y-73112380D01*
X135564476Y-73588571D01*
X135612095Y-73540952D01*
X135707333Y-73493333D01*
X135945428Y-73493333D01*
X136040666Y-73540952D01*
X136088285Y-73588571D01*
X136135904Y-73683809D01*
X136135904Y-73921904D01*
X136088285Y-74017142D01*
X136040666Y-74064761D01*
X135945428Y-74112380D01*
X135707333Y-74112380D01*
X135612095Y-74064761D01*
X135564476Y-74017142D01*
%TO.C,D2*%
X121943904Y-114752380D02*
X121943904Y-113752380D01*
X122182000Y-113752380D01*
X122324857Y-113800000D01*
X122420095Y-113895238D01*
X122467714Y-113990476D01*
X122515333Y-114180952D01*
X122515333Y-114323809D01*
X122467714Y-114514285D01*
X122420095Y-114609523D01*
X122324857Y-114704761D01*
X122182000Y-114752380D01*
X121943904Y-114752380D01*
X122896285Y-113847619D02*
X122943904Y-113800000D01*
X123039142Y-113752380D01*
X123277238Y-113752380D01*
X123372476Y-113800000D01*
X123420095Y-113847619D01*
X123467714Y-113942857D01*
X123467714Y-114038095D01*
X123420095Y-114180952D01*
X122848666Y-114752380D01*
X123467714Y-114752380D01*
%TO.C,R1*%
X131151333Y-74112380D02*
X130818000Y-73636190D01*
X130579904Y-74112380D02*
X130579904Y-73112380D01*
X130960857Y-73112380D01*
X131056095Y-73160000D01*
X131103714Y-73207619D01*
X131151333Y-73302857D01*
X131151333Y-73445714D01*
X131103714Y-73540952D01*
X131056095Y-73588571D01*
X130960857Y-73636190D01*
X130579904Y-73636190D01*
X132103714Y-74112380D02*
X131532285Y-74112380D01*
X131818000Y-74112380D02*
X131818000Y-73112380D01*
X131722761Y-73255238D01*
X131627523Y-73350476D01*
X131532285Y-73398095D01*
%TO.C,D1*%
X182395904Y-104084380D02*
X182395904Y-103084380D01*
X182634000Y-103084380D01*
X182776857Y-103132000D01*
X182872095Y-103227238D01*
X182919714Y-103322476D01*
X182967333Y-103512952D01*
X182967333Y-103655809D01*
X182919714Y-103846285D01*
X182872095Y-103941523D01*
X182776857Y-104036761D01*
X182634000Y-104084380D01*
X182395904Y-104084380D01*
X183919714Y-104084380D02*
X183348285Y-104084380D01*
X183634000Y-104084380D02*
X183634000Y-103084380D01*
X183538761Y-103227238D01*
X183443523Y-103322476D01*
X183348285Y-103370095D01*
%TO.C,R18*%
X142155142Y-61238380D02*
X141821809Y-60762190D01*
X141583714Y-61238380D02*
X141583714Y-60238380D01*
X141964666Y-60238380D01*
X142059904Y-60286000D01*
X142107523Y-60333619D01*
X142155142Y-60428857D01*
X142155142Y-60571714D01*
X142107523Y-60666952D01*
X142059904Y-60714571D01*
X141964666Y-60762190D01*
X141583714Y-60762190D01*
X143107523Y-61238380D02*
X142536095Y-61238380D01*
X142821809Y-61238380D02*
X142821809Y-60238380D01*
X142726571Y-60381238D01*
X142631333Y-60476476D01*
X142536095Y-60524095D01*
X143678952Y-60666952D02*
X143583714Y-60619333D01*
X143536095Y-60571714D01*
X143488476Y-60476476D01*
X143488476Y-60428857D01*
X143536095Y-60333619D01*
X143583714Y-60286000D01*
X143678952Y-60238380D01*
X143869428Y-60238380D01*
X143964666Y-60286000D01*
X144012285Y-60333619D01*
X144059904Y-60428857D01*
X144059904Y-60476476D01*
X144012285Y-60571714D01*
X143964666Y-60619333D01*
X143869428Y-60666952D01*
X143678952Y-60666952D01*
X143583714Y-60714571D01*
X143536095Y-60762190D01*
X143488476Y-60857428D01*
X143488476Y-61047904D01*
X143536095Y-61143142D01*
X143583714Y-61190761D01*
X143678952Y-61238380D01*
X143869428Y-61238380D01*
X143964666Y-61190761D01*
X144012285Y-61143142D01*
X144059904Y-61047904D01*
X144059904Y-60857428D01*
X144012285Y-60762190D01*
X143964666Y-60714571D01*
X143869428Y-60666952D01*
%TO.C,J3*%
X136894666Y-128211380D02*
X136894666Y-128925666D01*
X136847047Y-129068523D01*
X136751809Y-129163761D01*
X136608952Y-129211380D01*
X136513714Y-129211380D01*
X137275619Y-128211380D02*
X137894666Y-128211380D01*
X137561333Y-128592333D01*
X137704190Y-128592333D01*
X137799428Y-128639952D01*
X137847047Y-128687571D01*
X137894666Y-128782809D01*
X137894666Y-129020904D01*
X137847047Y-129116142D01*
X137799428Y-129163761D01*
X137704190Y-129211380D01*
X137418476Y-129211380D01*
X137323238Y-129163761D01*
X137275619Y-129116142D01*
%TO.C,D3*%
X121943904Y-107640380D02*
X121943904Y-106640380D01*
X122182000Y-106640380D01*
X122324857Y-106688000D01*
X122420095Y-106783238D01*
X122467714Y-106878476D01*
X122515333Y-107068952D01*
X122515333Y-107211809D01*
X122467714Y-107402285D01*
X122420095Y-107497523D01*
X122324857Y-107592761D01*
X122182000Y-107640380D01*
X121943904Y-107640380D01*
X122848666Y-106640380D02*
X123467714Y-106640380D01*
X123134380Y-107021333D01*
X123277238Y-107021333D01*
X123372476Y-107068952D01*
X123420095Y-107116571D01*
X123467714Y-107211809D01*
X123467714Y-107449904D01*
X123420095Y-107545142D01*
X123372476Y-107592761D01*
X123277238Y-107640380D01*
X122991523Y-107640380D01*
X122896285Y-107592761D01*
X122848666Y-107545142D01*
%TO.C,C8*%
X147661333Y-92051142D02*
X147613714Y-92098761D01*
X147470857Y-92146380D01*
X147375619Y-92146380D01*
X147232761Y-92098761D01*
X147137523Y-92003523D01*
X147089904Y-91908285D01*
X147042285Y-91717809D01*
X147042285Y-91574952D01*
X147089904Y-91384476D01*
X147137523Y-91289238D01*
X147232761Y-91194000D01*
X147375619Y-91146380D01*
X147470857Y-91146380D01*
X147613714Y-91194000D01*
X147661333Y-91241619D01*
X148232761Y-91574952D02*
X148137523Y-91527333D01*
X148089904Y-91479714D01*
X148042285Y-91384476D01*
X148042285Y-91336857D01*
X148089904Y-91241619D01*
X148137523Y-91194000D01*
X148232761Y-91146380D01*
X148423238Y-91146380D01*
X148518476Y-91194000D01*
X148566095Y-91241619D01*
X148613714Y-91336857D01*
X148613714Y-91384476D01*
X148566095Y-91479714D01*
X148518476Y-91527333D01*
X148423238Y-91574952D01*
X148232761Y-91574952D01*
X148137523Y-91622571D01*
X148089904Y-91670190D01*
X148042285Y-91765428D01*
X148042285Y-91955904D01*
X148089904Y-92051142D01*
X148137523Y-92098761D01*
X148232761Y-92146380D01*
X148423238Y-92146380D01*
X148518476Y-92098761D01*
X148566095Y-92051142D01*
X148613714Y-91955904D01*
X148613714Y-91765428D01*
X148566095Y-91670190D01*
X148518476Y-91622571D01*
X148423238Y-91574952D01*
%TO.C,R3*%
X170471333Y-75150380D02*
X170138000Y-74674190D01*
X169899904Y-75150380D02*
X169899904Y-74150380D01*
X170280857Y-74150380D01*
X170376095Y-74198000D01*
X170423714Y-74245619D01*
X170471333Y-74340857D01*
X170471333Y-74483714D01*
X170423714Y-74578952D01*
X170376095Y-74626571D01*
X170280857Y-74674190D01*
X169899904Y-74674190D01*
X170804666Y-74150380D02*
X171423714Y-74150380D01*
X171090380Y-74531333D01*
X171233238Y-74531333D01*
X171328476Y-74578952D01*
X171376095Y-74626571D01*
X171423714Y-74721809D01*
X171423714Y-74959904D01*
X171376095Y-75055142D01*
X171328476Y-75102761D01*
X171233238Y-75150380D01*
X170947523Y-75150380D01*
X170852285Y-75102761D01*
X170804666Y-75055142D01*
%TO.C,C5*%
X135063333Y-98655142D02*
X135015714Y-98702761D01*
X134872857Y-98750380D01*
X134777619Y-98750380D01*
X134634761Y-98702761D01*
X134539523Y-98607523D01*
X134491904Y-98512285D01*
X134444285Y-98321809D01*
X134444285Y-98178952D01*
X134491904Y-97988476D01*
X134539523Y-97893238D01*
X134634761Y-97798000D01*
X134777619Y-97750380D01*
X134872857Y-97750380D01*
X135015714Y-97798000D01*
X135063333Y-97845619D01*
X135968095Y-97750380D02*
X135491904Y-97750380D01*
X135444285Y-98226571D01*
X135491904Y-98178952D01*
X135587142Y-98131333D01*
X135825238Y-98131333D01*
X135920476Y-98178952D01*
X135968095Y-98226571D01*
X136015714Y-98321809D01*
X136015714Y-98559904D01*
X135968095Y-98655142D01*
X135920476Y-98702761D01*
X135825238Y-98750380D01*
X135587142Y-98750380D01*
X135491904Y-98702761D01*
X135444285Y-98655142D01*
%TO.C,C14*%
X155795142Y-76801142D02*
X155747523Y-76848761D01*
X155604666Y-76896380D01*
X155509428Y-76896380D01*
X155366571Y-76848761D01*
X155271333Y-76753523D01*
X155223714Y-76658285D01*
X155176095Y-76467809D01*
X155176095Y-76324952D01*
X155223714Y-76134476D01*
X155271333Y-76039238D01*
X155366571Y-75944000D01*
X155509428Y-75896380D01*
X155604666Y-75896380D01*
X155747523Y-75944000D01*
X155795142Y-75991619D01*
X156747523Y-76896380D02*
X156176095Y-76896380D01*
X156461809Y-76896380D02*
X156461809Y-75896380D01*
X156366571Y-76039238D01*
X156271333Y-76134476D01*
X156176095Y-76182095D01*
X157604666Y-76229714D02*
X157604666Y-76896380D01*
X157366571Y-75848761D02*
X157128476Y-76563047D01*
X157747523Y-76563047D01*
%TO.C,R19*%
X118800142Y-114404380D02*
X118466809Y-113928190D01*
X118228714Y-114404380D02*
X118228714Y-113404380D01*
X118609666Y-113404380D01*
X118704904Y-113452000D01*
X118752523Y-113499619D01*
X118800142Y-113594857D01*
X118800142Y-113737714D01*
X118752523Y-113832952D01*
X118704904Y-113880571D01*
X118609666Y-113928190D01*
X118228714Y-113928190D01*
X119752523Y-114404380D02*
X119181095Y-114404380D01*
X119466809Y-114404380D02*
X119466809Y-113404380D01*
X119371571Y-113547238D01*
X119276333Y-113642476D01*
X119181095Y-113690095D01*
X120228714Y-114404380D02*
X120419190Y-114404380D01*
X120514428Y-114356761D01*
X120562047Y-114309142D01*
X120657285Y-114166285D01*
X120704904Y-113975809D01*
X120704904Y-113594857D01*
X120657285Y-113499619D01*
X120609666Y-113452000D01*
X120514428Y-113404380D01*
X120323952Y-113404380D01*
X120228714Y-113452000D01*
X120181095Y-113499619D01*
X120133476Y-113594857D01*
X120133476Y-113832952D01*
X120181095Y-113928190D01*
X120228714Y-113975809D01*
X120323952Y-114023428D01*
X120514428Y-114023428D01*
X120609666Y-113975809D01*
X120657285Y-113928190D01*
X120704904Y-113832952D01*
%TO.C,R17*%
X176141142Y-104084380D02*
X175807809Y-103608190D01*
X175569714Y-104084380D02*
X175569714Y-103084380D01*
X175950666Y-103084380D01*
X176045904Y-103132000D01*
X176093523Y-103179619D01*
X176141142Y-103274857D01*
X176141142Y-103417714D01*
X176093523Y-103512952D01*
X176045904Y-103560571D01*
X175950666Y-103608190D01*
X175569714Y-103608190D01*
X177093523Y-104084380D02*
X176522095Y-104084380D01*
X176807809Y-104084380D02*
X176807809Y-103084380D01*
X176712571Y-103227238D01*
X176617333Y-103322476D01*
X176522095Y-103370095D01*
X177426857Y-103084380D02*
X178093523Y-103084380D01*
X177664952Y-104084380D01*
%TO.C,C21*%
X144137142Y-67159142D02*
X144089523Y-67206761D01*
X143946666Y-67254380D01*
X143851428Y-67254380D01*
X143708571Y-67206761D01*
X143613333Y-67111523D01*
X143565714Y-67016285D01*
X143518095Y-66825809D01*
X143518095Y-66682952D01*
X143565714Y-66492476D01*
X143613333Y-66397238D01*
X143708571Y-66302000D01*
X143851428Y-66254380D01*
X143946666Y-66254380D01*
X144089523Y-66302000D01*
X144137142Y-66349619D01*
X144518095Y-66349619D02*
X144565714Y-66302000D01*
X144660952Y-66254380D01*
X144899047Y-66254380D01*
X144994285Y-66302000D01*
X145041904Y-66349619D01*
X145089523Y-66444857D01*
X145089523Y-66540095D01*
X145041904Y-66682952D01*
X144470476Y-67254380D01*
X145089523Y-67254380D01*
X146041904Y-67254380D02*
X145470476Y-67254380D01*
X145756190Y-67254380D02*
X145756190Y-66254380D01*
X145660952Y-66397238D01*
X145565714Y-66492476D01*
X145470476Y-66540095D01*
%TO.C,C11*%
X139205142Y-59793142D02*
X139157523Y-59840761D01*
X139014666Y-59888380D01*
X138919428Y-59888380D01*
X138776571Y-59840761D01*
X138681333Y-59745523D01*
X138633714Y-59650285D01*
X138586095Y-59459809D01*
X138586095Y-59316952D01*
X138633714Y-59126476D01*
X138681333Y-59031238D01*
X138776571Y-58936000D01*
X138919428Y-58888380D01*
X139014666Y-58888380D01*
X139157523Y-58936000D01*
X139205142Y-58983619D01*
X140157523Y-59888380D02*
X139586095Y-59888380D01*
X139871809Y-59888380D02*
X139871809Y-58888380D01*
X139776571Y-59031238D01*
X139681333Y-59126476D01*
X139586095Y-59174095D01*
X141109904Y-59888380D02*
X140538476Y-59888380D01*
X140824190Y-59888380D02*
X140824190Y-58888380D01*
X140728952Y-59031238D01*
X140633714Y-59126476D01*
X140538476Y-59174095D01*
%TO.C,J12*%
X116792476Y-55586380D02*
X116792476Y-56300666D01*
X116744857Y-56443523D01*
X116649619Y-56538761D01*
X116506761Y-56586380D01*
X116411523Y-56586380D01*
X117792476Y-56586380D02*
X117221047Y-56586380D01*
X117506761Y-56586380D02*
X117506761Y-55586380D01*
X117411523Y-55729238D01*
X117316285Y-55824476D01*
X117221047Y-55872095D01*
X118173428Y-55681619D02*
X118221047Y-55634000D01*
X118316285Y-55586380D01*
X118554380Y-55586380D01*
X118649619Y-55634000D01*
X118697238Y-55681619D01*
X118744857Y-55776857D01*
X118744857Y-55872095D01*
X118697238Y-56014952D01*
X118125809Y-56586380D01*
X118744857Y-56586380D01*
X113784380Y-53808380D02*
X113784380Y-54617904D01*
X113832000Y-54713142D01*
X113879619Y-54760761D01*
X113974857Y-54808380D01*
X114165333Y-54808380D01*
X114260571Y-54760761D01*
X114308190Y-54713142D01*
X114355809Y-54617904D01*
X114355809Y-53808380D01*
X114784380Y-54760761D02*
X114927238Y-54808380D01*
X115165333Y-54808380D01*
X115260571Y-54760761D01*
X115308190Y-54713142D01*
X115355809Y-54617904D01*
X115355809Y-54522666D01*
X115308190Y-54427428D01*
X115260571Y-54379809D01*
X115165333Y-54332190D01*
X114974857Y-54284571D01*
X114879619Y-54236952D01*
X114832000Y-54189333D01*
X114784380Y-54094095D01*
X114784380Y-53998857D01*
X114832000Y-53903619D01*
X114879619Y-53856000D01*
X114974857Y-53808380D01*
X115212952Y-53808380D01*
X115355809Y-53856000D01*
X115736761Y-54522666D02*
X116212952Y-54522666D01*
X115641523Y-54808380D02*
X115974857Y-53808380D01*
X116308190Y-54808380D01*
X117212952Y-54808380D02*
X116879619Y-54332190D01*
X116641523Y-54808380D02*
X116641523Y-53808380D01*
X117022476Y-53808380D01*
X117117714Y-53856000D01*
X117165333Y-53903619D01*
X117212952Y-53998857D01*
X117212952Y-54141714D01*
X117165333Y-54236952D01*
X117117714Y-54284571D01*
X117022476Y-54332190D01*
X116641523Y-54332190D01*
X117498666Y-53808380D02*
X118070095Y-53808380D01*
X117784380Y-54808380D02*
X117784380Y-53808380D01*
X118927238Y-54808380D02*
X118355809Y-54808380D01*
X118641523Y-54808380D02*
X118641523Y-53808380D01*
X118546285Y-53951238D01*
X118451047Y-54046476D01*
X118355809Y-54094095D01*
X123531333Y-58618380D02*
X123198000Y-58142190D01*
X122959904Y-58618380D02*
X122959904Y-57618380D01*
X123340857Y-57618380D01*
X123436095Y-57666000D01*
X123483714Y-57713619D01*
X123531333Y-57808857D01*
X123531333Y-57951714D01*
X123483714Y-58046952D01*
X123436095Y-58094571D01*
X123340857Y-58142190D01*
X122959904Y-58142190D01*
X123864666Y-57618380D02*
X124531333Y-58618380D01*
X124531333Y-57618380D02*
X123864666Y-58618380D01*
X120411095Y-57618380D02*
X120982523Y-57618380D01*
X120696809Y-58618380D02*
X120696809Y-57618380D01*
X121220619Y-57618380D02*
X121887285Y-58618380D01*
X121887285Y-57618380D02*
X121220619Y-58618380D01*
%TO.C,R7*%
X161488380Y-123356666D02*
X161012190Y-123690000D01*
X161488380Y-123928095D02*
X160488380Y-123928095D01*
X160488380Y-123547142D01*
X160536000Y-123451904D01*
X160583619Y-123404285D01*
X160678857Y-123356666D01*
X160821714Y-123356666D01*
X160916952Y-123404285D01*
X160964571Y-123451904D01*
X161012190Y-123547142D01*
X161012190Y-123928095D01*
X160488380Y-123023333D02*
X160488380Y-122356666D01*
X161488380Y-122785238D01*
%TO.C,R11*%
X171394380Y-123324857D02*
X170918190Y-123658190D01*
X171394380Y-123896285D02*
X170394380Y-123896285D01*
X170394380Y-123515333D01*
X170442000Y-123420095D01*
X170489619Y-123372476D01*
X170584857Y-123324857D01*
X170727714Y-123324857D01*
X170822952Y-123372476D01*
X170870571Y-123420095D01*
X170918190Y-123515333D01*
X170918190Y-123896285D01*
X171394380Y-122372476D02*
X171394380Y-122943904D01*
X171394380Y-122658190D02*
X170394380Y-122658190D01*
X170537238Y-122753428D01*
X170632476Y-122848666D01*
X170680095Y-122943904D01*
X171394380Y-121420095D02*
X171394380Y-121991523D01*
X171394380Y-121705809D02*
X170394380Y-121705809D01*
X170537238Y-121801047D01*
X170632476Y-121896285D01*
X170680095Y-121991523D01*
%TO.C,C17*%
X148709142Y-57253142D02*
X148661523Y-57300761D01*
X148518666Y-57348380D01*
X148423428Y-57348380D01*
X148280571Y-57300761D01*
X148185333Y-57205523D01*
X148137714Y-57110285D01*
X148090095Y-56919809D01*
X148090095Y-56776952D01*
X148137714Y-56586476D01*
X148185333Y-56491238D01*
X148280571Y-56396000D01*
X148423428Y-56348380D01*
X148518666Y-56348380D01*
X148661523Y-56396000D01*
X148709142Y-56443619D01*
X149661523Y-57348380D02*
X149090095Y-57348380D01*
X149375809Y-57348380D02*
X149375809Y-56348380D01*
X149280571Y-56491238D01*
X149185333Y-56586476D01*
X149090095Y-56634095D01*
X149994857Y-56348380D02*
X150661523Y-56348380D01*
X150232952Y-57348380D01*
%TO.C,R16*%
X142105142Y-59888380D02*
X141771809Y-59412190D01*
X141533714Y-59888380D02*
X141533714Y-58888380D01*
X141914666Y-58888380D01*
X142009904Y-58936000D01*
X142057523Y-58983619D01*
X142105142Y-59078857D01*
X142105142Y-59221714D01*
X142057523Y-59316952D01*
X142009904Y-59364571D01*
X141914666Y-59412190D01*
X141533714Y-59412190D01*
X143057523Y-59888380D02*
X142486095Y-59888380D01*
X142771809Y-59888380D02*
X142771809Y-58888380D01*
X142676571Y-59031238D01*
X142581333Y-59126476D01*
X142486095Y-59174095D01*
X143914666Y-58888380D02*
X143724190Y-58888380D01*
X143628952Y-58936000D01*
X143581333Y-58983619D01*
X143486095Y-59126476D01*
X143438476Y-59316952D01*
X143438476Y-59697904D01*
X143486095Y-59793142D01*
X143533714Y-59840761D01*
X143628952Y-59888380D01*
X143819428Y-59888380D01*
X143914666Y-59840761D01*
X143962285Y-59793142D01*
X144009904Y-59697904D01*
X144009904Y-59459809D01*
X143962285Y-59364571D01*
X143914666Y-59316952D01*
X143819428Y-59269333D01*
X143628952Y-59269333D01*
X143533714Y-59316952D01*
X143486095Y-59364571D01*
X143438476Y-59459809D01*
%TO.C,J17*%
X113186476Y-106054380D02*
X113186476Y-106768666D01*
X113138857Y-106911523D01*
X113043619Y-107006761D01*
X112900761Y-107054380D01*
X112805523Y-107054380D01*
X114186476Y-107054380D02*
X113615047Y-107054380D01*
X113900761Y-107054380D02*
X113900761Y-106054380D01*
X113805523Y-106197238D01*
X113710285Y-106292476D01*
X113615047Y-106340095D01*
X114519809Y-106054380D02*
X115186476Y-106054380D01*
X114757904Y-107054380D01*
X113426952Y-105354380D02*
X112855523Y-105354380D01*
X113141238Y-105354380D02*
X113141238Y-104354380D01*
X113046000Y-104497238D01*
X112950761Y-104592476D01*
X112855523Y-104640095D01*
X113807904Y-104449619D02*
X113855523Y-104402000D01*
X113950761Y-104354380D01*
X114188857Y-104354380D01*
X114284095Y-104402000D01*
X114331714Y-104449619D01*
X114379333Y-104544857D01*
X114379333Y-104640095D01*
X114331714Y-104782952D01*
X113760285Y-105354380D01*
X114379333Y-105354380D01*
X114665047Y-104354380D02*
X114998380Y-105354380D01*
X115331714Y-104354380D01*
%TO.C,R2*%
X170521333Y-73350380D02*
X170188000Y-72874190D01*
X169949904Y-73350380D02*
X169949904Y-72350380D01*
X170330857Y-72350380D01*
X170426095Y-72398000D01*
X170473714Y-72445619D01*
X170521333Y-72540857D01*
X170521333Y-72683714D01*
X170473714Y-72778952D01*
X170426095Y-72826571D01*
X170330857Y-72874190D01*
X169949904Y-72874190D01*
X170902285Y-72445619D02*
X170949904Y-72398000D01*
X171045142Y-72350380D01*
X171283238Y-72350380D01*
X171378476Y-72398000D01*
X171426095Y-72445619D01*
X171473714Y-72540857D01*
X171473714Y-72636095D01*
X171426095Y-72778952D01*
X170854666Y-73350380D01*
X171473714Y-73350380D01*
%TO.C,R9*%
X166568380Y-123356666D02*
X166092190Y-123690000D01*
X166568380Y-123928095D02*
X165568380Y-123928095D01*
X165568380Y-123547142D01*
X165616000Y-123451904D01*
X165663619Y-123404285D01*
X165758857Y-123356666D01*
X165901714Y-123356666D01*
X165996952Y-123404285D01*
X166044571Y-123451904D01*
X166092190Y-123547142D01*
X166092190Y-123928095D01*
X166568380Y-122880476D02*
X166568380Y-122690000D01*
X166520761Y-122594761D01*
X166473142Y-122547142D01*
X166330285Y-122451904D01*
X166139809Y-122404285D01*
X165758857Y-122404285D01*
X165663619Y-122451904D01*
X165616000Y-122499523D01*
X165568380Y-122594761D01*
X165568380Y-122785238D01*
X165616000Y-122880476D01*
X165663619Y-122928095D01*
X165758857Y-122975714D01*
X165996952Y-122975714D01*
X166092190Y-122928095D01*
X166139809Y-122880476D01*
X166187428Y-122785238D01*
X166187428Y-122594761D01*
X166139809Y-122499523D01*
X166092190Y-122451904D01*
X165996952Y-122404285D01*
%TO.C,J1*%
X117035380Y-89542333D02*
X117749666Y-89542333D01*
X117892523Y-89589952D01*
X117987761Y-89685190D01*
X118035380Y-89828047D01*
X118035380Y-89923285D01*
X118035380Y-88542333D02*
X118035380Y-89113761D01*
X118035380Y-88828047D02*
X117035380Y-88828047D01*
X117178238Y-88923285D01*
X117273476Y-89018523D01*
X117321095Y-89113761D01*
%TO.C,R21*%
X118737142Y-107292380D02*
X118403809Y-106816190D01*
X118165714Y-107292380D02*
X118165714Y-106292380D01*
X118546666Y-106292380D01*
X118641904Y-106340000D01*
X118689523Y-106387619D01*
X118737142Y-106482857D01*
X118737142Y-106625714D01*
X118689523Y-106720952D01*
X118641904Y-106768571D01*
X118546666Y-106816190D01*
X118165714Y-106816190D01*
X119118095Y-106387619D02*
X119165714Y-106340000D01*
X119260952Y-106292380D01*
X119499047Y-106292380D01*
X119594285Y-106340000D01*
X119641904Y-106387619D01*
X119689523Y-106482857D01*
X119689523Y-106578095D01*
X119641904Y-106720952D01*
X119070476Y-107292380D01*
X119689523Y-107292380D01*
X120641904Y-107292380D02*
X120070476Y-107292380D01*
X120356190Y-107292380D02*
X120356190Y-106292380D01*
X120260952Y-106435238D01*
X120165714Y-106530476D01*
X120070476Y-106578095D01*
%TO.C,C10*%
X137787142Y-74779142D02*
X137739523Y-74826761D01*
X137596666Y-74874380D01*
X137501428Y-74874380D01*
X137358571Y-74826761D01*
X137263333Y-74731523D01*
X137215714Y-74636285D01*
X137168095Y-74445809D01*
X137168095Y-74302952D01*
X137215714Y-74112476D01*
X137263333Y-74017238D01*
X137358571Y-73922000D01*
X137501428Y-73874380D01*
X137596666Y-73874380D01*
X137739523Y-73922000D01*
X137787142Y-73969619D01*
X138739523Y-74874380D02*
X138168095Y-74874380D01*
X138453809Y-74874380D02*
X138453809Y-73874380D01*
X138358571Y-74017238D01*
X138263333Y-74112476D01*
X138168095Y-74160095D01*
X139358571Y-73874380D02*
X139453809Y-73874380D01*
X139549047Y-73922000D01*
X139596666Y-73969619D01*
X139644285Y-74064857D01*
X139691904Y-74255333D01*
X139691904Y-74493428D01*
X139644285Y-74683904D01*
X139596666Y-74779142D01*
X139549047Y-74826761D01*
X139453809Y-74874380D01*
X139358571Y-74874380D01*
X139263333Y-74826761D01*
X139215714Y-74779142D01*
X139168095Y-74683904D01*
X139120476Y-74493428D01*
X139120476Y-74255333D01*
X139168095Y-74064857D01*
X139215714Y-73969619D01*
X139263333Y-73922000D01*
X139358571Y-73874380D01*
%TO.C,C16*%
X159795142Y-61571142D02*
X159747523Y-61618761D01*
X159604666Y-61666380D01*
X159509428Y-61666380D01*
X159366571Y-61618761D01*
X159271333Y-61523523D01*
X159223714Y-61428285D01*
X159176095Y-61237809D01*
X159176095Y-61094952D01*
X159223714Y-60904476D01*
X159271333Y-60809238D01*
X159366571Y-60714000D01*
X159509428Y-60666380D01*
X159604666Y-60666380D01*
X159747523Y-60714000D01*
X159795142Y-60761619D01*
X160747523Y-61666380D02*
X160176095Y-61666380D01*
X160461809Y-61666380D02*
X160461809Y-60666380D01*
X160366571Y-60809238D01*
X160271333Y-60904476D01*
X160176095Y-60952095D01*
X161604666Y-60666380D02*
X161414190Y-60666380D01*
X161318952Y-60714000D01*
X161271333Y-60761619D01*
X161176095Y-60904476D01*
X161128476Y-61094952D01*
X161128476Y-61475904D01*
X161176095Y-61571142D01*
X161223714Y-61618761D01*
X161318952Y-61666380D01*
X161509428Y-61666380D01*
X161604666Y-61618761D01*
X161652285Y-61571142D01*
X161699904Y-61475904D01*
X161699904Y-61237809D01*
X161652285Y-61142571D01*
X161604666Y-61094952D01*
X161509428Y-61047333D01*
X161318952Y-61047333D01*
X161223714Y-61094952D01*
X161176095Y-61142571D01*
X161128476Y-61237809D01*
%TO.C,R4*%
X129119333Y-74112380D02*
X128786000Y-73636190D01*
X128547904Y-74112380D02*
X128547904Y-73112380D01*
X128928857Y-73112380D01*
X129024095Y-73160000D01*
X129071714Y-73207619D01*
X129119333Y-73302857D01*
X129119333Y-73445714D01*
X129071714Y-73540952D01*
X129024095Y-73588571D01*
X128928857Y-73636190D01*
X128547904Y-73636190D01*
X129976476Y-73445714D02*
X129976476Y-74112380D01*
X129738380Y-73064761D02*
X129500285Y-73779047D01*
X130119333Y-73779047D01*
%TO.C,C2*%
X133437333Y-104471142D02*
X133389714Y-104518761D01*
X133246857Y-104566380D01*
X133151619Y-104566380D01*
X133008761Y-104518761D01*
X132913523Y-104423523D01*
X132865904Y-104328285D01*
X132818285Y-104137809D01*
X132818285Y-103994952D01*
X132865904Y-103804476D01*
X132913523Y-103709238D01*
X133008761Y-103614000D01*
X133151619Y-103566380D01*
X133246857Y-103566380D01*
X133389714Y-103614000D01*
X133437333Y-103661619D01*
X133818285Y-103661619D02*
X133865904Y-103614000D01*
X133961142Y-103566380D01*
X134199238Y-103566380D01*
X134294476Y-103614000D01*
X134342095Y-103661619D01*
X134389714Y-103756857D01*
X134389714Y-103852095D01*
X134342095Y-103994952D01*
X133770666Y-104566380D01*
X134389714Y-104566380D01*
%TO.C,R14*%
X134883142Y-124924380D02*
X134549809Y-124448190D01*
X134311714Y-124924380D02*
X134311714Y-123924380D01*
X134692666Y-123924380D01*
X134787904Y-123972000D01*
X134835523Y-124019619D01*
X134883142Y-124114857D01*
X134883142Y-124257714D01*
X134835523Y-124352952D01*
X134787904Y-124400571D01*
X134692666Y-124448190D01*
X134311714Y-124448190D01*
X135835523Y-124924380D02*
X135264095Y-124924380D01*
X135549809Y-124924380D02*
X135549809Y-123924380D01*
X135454571Y-124067238D01*
X135359333Y-124162476D01*
X135264095Y-124210095D01*
X136692666Y-124257714D02*
X136692666Y-124924380D01*
X136454571Y-123876761D02*
X136216476Y-124591047D01*
X136835523Y-124591047D01*
%TO.C,J16*%
X113236476Y-113249380D02*
X113236476Y-113963666D01*
X113188857Y-114106523D01*
X113093619Y-114201761D01*
X112950761Y-114249380D01*
X112855523Y-114249380D01*
X114236476Y-114249380D02*
X113665047Y-114249380D01*
X113950761Y-114249380D02*
X113950761Y-113249380D01*
X113855523Y-113392238D01*
X113760285Y-113487476D01*
X113665047Y-113535095D01*
X115093619Y-113249380D02*
X114903142Y-113249380D01*
X114807904Y-113297000D01*
X114760285Y-113344619D01*
X114665047Y-113487476D01*
X114617428Y-113677952D01*
X114617428Y-114058904D01*
X114665047Y-114154142D01*
X114712666Y-114201761D01*
X114807904Y-114249380D01*
X114998380Y-114249380D01*
X115093619Y-114201761D01*
X115141238Y-114154142D01*
X115188857Y-114058904D01*
X115188857Y-113820809D01*
X115141238Y-113725571D01*
X115093619Y-113677952D01*
X114998380Y-113630333D01*
X114807904Y-113630333D01*
X114712666Y-113677952D01*
X114665047Y-113725571D01*
X114617428Y-113820809D01*
X114255523Y-111549380D02*
X113779333Y-111549380D01*
X113731714Y-112025571D01*
X113779333Y-111977952D01*
X113874571Y-111930333D01*
X114112666Y-111930333D01*
X114207904Y-111977952D01*
X114255523Y-112025571D01*
X114303142Y-112120809D01*
X114303142Y-112358904D01*
X114255523Y-112454142D01*
X114207904Y-112501761D01*
X114112666Y-112549380D01*
X113874571Y-112549380D01*
X113779333Y-112501761D01*
X113731714Y-112454142D01*
X114588857Y-111549380D02*
X114922190Y-112549380D01*
X115255523Y-111549380D01*
%TO.C,C1*%
X120483333Y-99925142D02*
X120435714Y-99972761D01*
X120292857Y-100020380D01*
X120197619Y-100020380D01*
X120054761Y-99972761D01*
X119959523Y-99877523D01*
X119911904Y-99782285D01*
X119864285Y-99591809D01*
X119864285Y-99448952D01*
X119911904Y-99258476D01*
X119959523Y-99163238D01*
X120054761Y-99068000D01*
X120197619Y-99020380D01*
X120292857Y-99020380D01*
X120435714Y-99068000D01*
X120483333Y-99115619D01*
X121435714Y-100020380D02*
X120864285Y-100020380D01*
X121150000Y-100020380D02*
X121150000Y-99020380D01*
X121054761Y-99163238D01*
X120959523Y-99258476D01*
X120864285Y-99306095D01*
%TO.C,C4*%
X135543333Y-104467142D02*
X135495714Y-104514761D01*
X135352857Y-104562380D01*
X135257619Y-104562380D01*
X135114761Y-104514761D01*
X135019523Y-104419523D01*
X134971904Y-104324285D01*
X134924285Y-104133809D01*
X134924285Y-103990952D01*
X134971904Y-103800476D01*
X135019523Y-103705238D01*
X135114761Y-103610000D01*
X135257619Y-103562380D01*
X135352857Y-103562380D01*
X135495714Y-103610000D01*
X135543333Y-103657619D01*
X136400476Y-103895714D02*
X136400476Y-104562380D01*
X136162380Y-103514761D02*
X135924285Y-104229047D01*
X136543333Y-104229047D01*
%TO.C,C9*%
X145449333Y-104717142D02*
X145401714Y-104764761D01*
X145258857Y-104812380D01*
X145163619Y-104812380D01*
X145020761Y-104764761D01*
X144925523Y-104669523D01*
X144877904Y-104574285D01*
X144830285Y-104383809D01*
X144830285Y-104240952D01*
X144877904Y-104050476D01*
X144925523Y-103955238D01*
X145020761Y-103860000D01*
X145163619Y-103812380D01*
X145258857Y-103812380D01*
X145401714Y-103860000D01*
X145449333Y-103907619D01*
X145925523Y-104812380D02*
X146116000Y-104812380D01*
X146211238Y-104764761D01*
X146258857Y-104717142D01*
X146354095Y-104574285D01*
X146401714Y-104383809D01*
X146401714Y-104002857D01*
X146354095Y-103907619D01*
X146306476Y-103860000D01*
X146211238Y-103812380D01*
X146020761Y-103812380D01*
X145925523Y-103860000D01*
X145877904Y-103907619D01*
X145830285Y-104002857D01*
X145830285Y-104240952D01*
X145877904Y-104336190D01*
X145925523Y-104383809D01*
X146020761Y-104431428D01*
X146211238Y-104431428D01*
X146306476Y-104383809D01*
X146354095Y-104336190D01*
X146401714Y-104240952D01*
%TO.C,R13*%
X153085142Y-127311380D02*
X152751809Y-126835190D01*
X152513714Y-127311380D02*
X152513714Y-126311380D01*
X152894666Y-126311380D01*
X152989904Y-126359000D01*
X153037523Y-126406619D01*
X153085142Y-126501857D01*
X153085142Y-126644714D01*
X153037523Y-126739952D01*
X152989904Y-126787571D01*
X152894666Y-126835190D01*
X152513714Y-126835190D01*
X154037523Y-127311380D02*
X153466095Y-127311380D01*
X153751809Y-127311380D02*
X153751809Y-126311380D01*
X153656571Y-126454238D01*
X153561333Y-126549476D01*
X153466095Y-126597095D01*
X154370857Y-126311380D02*
X154989904Y-126311380D01*
X154656571Y-126692333D01*
X154799428Y-126692333D01*
X154894666Y-126739952D01*
X154942285Y-126787571D01*
X154989904Y-126882809D01*
X154989904Y-127120904D01*
X154942285Y-127216142D01*
X154894666Y-127263761D01*
X154799428Y-127311380D01*
X154513714Y-127311380D01*
X154418476Y-127263761D01*
X154370857Y-127216142D01*
%TO.C,C6*%
X138885333Y-110019142D02*
X138837714Y-110066761D01*
X138694857Y-110114380D01*
X138599619Y-110114380D01*
X138456761Y-110066761D01*
X138361523Y-109971523D01*
X138313904Y-109876285D01*
X138266285Y-109685809D01*
X138266285Y-109542952D01*
X138313904Y-109352476D01*
X138361523Y-109257238D01*
X138456761Y-109162000D01*
X138599619Y-109114380D01*
X138694857Y-109114380D01*
X138837714Y-109162000D01*
X138885333Y-109209619D01*
X139742476Y-109114380D02*
X139552000Y-109114380D01*
X139456761Y-109162000D01*
X139409142Y-109209619D01*
X139313904Y-109352476D01*
X139266285Y-109542952D01*
X139266285Y-109923904D01*
X139313904Y-110019142D01*
X139361523Y-110066761D01*
X139456761Y-110114380D01*
X139647238Y-110114380D01*
X139742476Y-110066761D01*
X139790095Y-110019142D01*
X139837714Y-109923904D01*
X139837714Y-109685809D01*
X139790095Y-109590571D01*
X139742476Y-109542952D01*
X139647238Y-109495333D01*
X139456761Y-109495333D01*
X139361523Y-109542952D01*
X139313904Y-109590571D01*
X139266285Y-109685809D01*
%TO.C,C12*%
X139155142Y-61143142D02*
X139107523Y-61190761D01*
X138964666Y-61238380D01*
X138869428Y-61238380D01*
X138726571Y-61190761D01*
X138631333Y-61095523D01*
X138583714Y-61000285D01*
X138536095Y-60809809D01*
X138536095Y-60666952D01*
X138583714Y-60476476D01*
X138631333Y-60381238D01*
X138726571Y-60286000D01*
X138869428Y-60238380D01*
X138964666Y-60238380D01*
X139107523Y-60286000D01*
X139155142Y-60333619D01*
X140107523Y-61238380D02*
X139536095Y-61238380D01*
X139821809Y-61238380D02*
X139821809Y-60238380D01*
X139726571Y-60381238D01*
X139631333Y-60476476D01*
X139536095Y-60524095D01*
X140488476Y-60333619D02*
X140536095Y-60286000D01*
X140631333Y-60238380D01*
X140869428Y-60238380D01*
X140964666Y-60286000D01*
X141012285Y-60333619D01*
X141059904Y-60428857D01*
X141059904Y-60524095D01*
X141012285Y-60666952D01*
X140440857Y-61238380D01*
X141059904Y-61238380D01*
%TO.C,C3*%
X132777333Y-98655142D02*
X132729714Y-98702761D01*
X132586857Y-98750380D01*
X132491619Y-98750380D01*
X132348761Y-98702761D01*
X132253523Y-98607523D01*
X132205904Y-98512285D01*
X132158285Y-98321809D01*
X132158285Y-98178952D01*
X132205904Y-97988476D01*
X132253523Y-97893238D01*
X132348761Y-97798000D01*
X132491619Y-97750380D01*
X132586857Y-97750380D01*
X132729714Y-97798000D01*
X132777333Y-97845619D01*
X133110666Y-97750380D02*
X133729714Y-97750380D01*
X133396380Y-98131333D01*
X133539238Y-98131333D01*
X133634476Y-98178952D01*
X133682095Y-98226571D01*
X133729714Y-98321809D01*
X133729714Y-98559904D01*
X133682095Y-98655142D01*
X133634476Y-98702761D01*
X133539238Y-98750380D01*
X133253523Y-98750380D01*
X133158285Y-98702761D01*
X133110666Y-98655142D01*
%TO.C,J8*%
X164004666Y-68799380D02*
X164004666Y-69513666D01*
X163957047Y-69656523D01*
X163861809Y-69751761D01*
X163718952Y-69799380D01*
X163623714Y-69799380D01*
X164623714Y-69227952D02*
X164528476Y-69180333D01*
X164480857Y-69132714D01*
X164433238Y-69037476D01*
X164433238Y-68989857D01*
X164480857Y-68894619D01*
X164528476Y-68847000D01*
X164623714Y-68799380D01*
X164814190Y-68799380D01*
X164909428Y-68847000D01*
X164957047Y-68894619D01*
X165004666Y-68989857D01*
X165004666Y-69037476D01*
X164957047Y-69132714D01*
X164909428Y-69180333D01*
X164814190Y-69227952D01*
X164623714Y-69227952D01*
X164528476Y-69275571D01*
X164480857Y-69323190D01*
X164433238Y-69418428D01*
X164433238Y-69608904D01*
X164480857Y-69704142D01*
X164528476Y-69751761D01*
X164623714Y-69799380D01*
X164814190Y-69799380D01*
X164909428Y-69751761D01*
X164957047Y-69704142D01*
X165004666Y-69608904D01*
X165004666Y-69418428D01*
X164957047Y-69323190D01*
X164909428Y-69275571D01*
X164814190Y-69227952D01*
X162048619Y-71561380D02*
X162048619Y-70561380D01*
X162477190Y-70656619D02*
X162524809Y-70609000D01*
X162620047Y-70561380D01*
X162858142Y-70561380D01*
X162953380Y-70609000D01*
X163001000Y-70656619D01*
X163048619Y-70751857D01*
X163048619Y-70847095D01*
X163001000Y-70989952D01*
X162429571Y-71561380D01*
X163048619Y-71561380D01*
X164048619Y-71466142D02*
X164001000Y-71513761D01*
X163858142Y-71561380D01*
X163762904Y-71561380D01*
X163620047Y-71513761D01*
X163524809Y-71418523D01*
X163477190Y-71323285D01*
X163429571Y-71132809D01*
X163429571Y-70989952D01*
X163477190Y-70799476D01*
X163524809Y-70704238D01*
X163620047Y-70609000D01*
X163762904Y-70561380D01*
X163858142Y-70561380D01*
X164001000Y-70609000D01*
X164048619Y-70656619D01*
X164429571Y-70656619D02*
X164477190Y-70609000D01*
X164572428Y-70561380D01*
X164810523Y-70561380D01*
X164905761Y-70609000D01*
X164953380Y-70656619D01*
X165001000Y-70751857D01*
X165001000Y-70847095D01*
X164953380Y-70989952D01*
X164381952Y-71561380D01*
X165001000Y-71561380D01*
X159111714Y-74073761D02*
X159254571Y-74121380D01*
X159492666Y-74121380D01*
X159587904Y-74073761D01*
X159635523Y-74026142D01*
X159683142Y-73930904D01*
X159683142Y-73835666D01*
X159635523Y-73740428D01*
X159587904Y-73692809D01*
X159492666Y-73645190D01*
X159302190Y-73597571D01*
X159206952Y-73549952D01*
X159159333Y-73502333D01*
X159111714Y-73407095D01*
X159111714Y-73311857D01*
X159159333Y-73216619D01*
X159206952Y-73169000D01*
X159302190Y-73121380D01*
X159540285Y-73121380D01*
X159683142Y-73169000D01*
X160111714Y-74121380D02*
X160111714Y-73121380D01*
X160349809Y-73121380D01*
X160492666Y-73169000D01*
X160587904Y-73264238D01*
X160635523Y-73359476D01*
X160683142Y-73549952D01*
X160683142Y-73692809D01*
X160635523Y-73883285D01*
X160587904Y-73978523D01*
X160492666Y-74073761D01*
X160349809Y-74121380D01*
X160111714Y-74121380D01*
X161064095Y-73835666D02*
X161540285Y-73835666D01*
X160968857Y-74121380D02*
X161302190Y-73121380D01*
X161635523Y-74121380D01*
X159135523Y-76863761D02*
X159278380Y-76911380D01*
X159516476Y-76911380D01*
X159611714Y-76863761D01*
X159659333Y-76816142D01*
X159706952Y-76720904D01*
X159706952Y-76625666D01*
X159659333Y-76530428D01*
X159611714Y-76482809D01*
X159516476Y-76435190D01*
X159326000Y-76387571D01*
X159230761Y-76339952D01*
X159183142Y-76292333D01*
X159135523Y-76197095D01*
X159135523Y-76101857D01*
X159183142Y-76006619D01*
X159230761Y-75959000D01*
X159326000Y-75911380D01*
X159564095Y-75911380D01*
X159706952Y-75959000D01*
X160706952Y-76816142D02*
X160659333Y-76863761D01*
X160516476Y-76911380D01*
X160421238Y-76911380D01*
X160278380Y-76863761D01*
X160183142Y-76768523D01*
X160135523Y-76673285D01*
X160087904Y-76482809D01*
X160087904Y-76339952D01*
X160135523Y-76149476D01*
X160183142Y-76054238D01*
X160278380Y-75959000D01*
X160421238Y-75911380D01*
X160516476Y-75911380D01*
X160659333Y-75959000D01*
X160706952Y-76006619D01*
X161611714Y-76911380D02*
X161135523Y-76911380D01*
X161135523Y-75911380D01*
%TO.C,R20*%
X144645142Y-55824380D02*
X144311809Y-55348190D01*
X144073714Y-55824380D02*
X144073714Y-54824380D01*
X144454666Y-54824380D01*
X144549904Y-54872000D01*
X144597523Y-54919619D01*
X144645142Y-55014857D01*
X144645142Y-55157714D01*
X144597523Y-55252952D01*
X144549904Y-55300571D01*
X144454666Y-55348190D01*
X144073714Y-55348190D01*
X145026095Y-54919619D02*
X145073714Y-54872000D01*
X145168952Y-54824380D01*
X145407047Y-54824380D01*
X145502285Y-54872000D01*
X145549904Y-54919619D01*
X145597523Y-55014857D01*
X145597523Y-55110095D01*
X145549904Y-55252952D01*
X144978476Y-55824380D01*
X145597523Y-55824380D01*
X146216571Y-54824380D02*
X146311809Y-54824380D01*
X146407047Y-54872000D01*
X146454666Y-54919619D01*
X146502285Y-55014857D01*
X146549904Y-55205333D01*
X146549904Y-55443428D01*
X146502285Y-55633904D01*
X146454666Y-55729142D01*
X146407047Y-55776761D01*
X146311809Y-55824380D01*
X146216571Y-55824380D01*
X146121333Y-55776761D01*
X146073714Y-55729142D01*
X146026095Y-55633904D01*
X145978476Y-55443428D01*
X145978476Y-55205333D01*
X146026095Y-55014857D01*
X146073714Y-54919619D01*
X146121333Y-54872000D01*
X146216571Y-54824380D01*
%TO.C,L1*%
X137501333Y-70302380D02*
X137025142Y-70302380D01*
X137025142Y-69302380D01*
X138358476Y-70302380D02*
X137787047Y-70302380D01*
X138072761Y-70302380D02*
X138072761Y-69302380D01*
X137977523Y-69445238D01*
X137882285Y-69540476D01*
X137787047Y-69588095D01*
%TO.C,X1*%
X137874476Y-62698380D02*
X138541142Y-63698380D01*
X138541142Y-62698380D02*
X137874476Y-63698380D01*
X139445904Y-63698380D02*
X138874476Y-63698380D01*
X139160190Y-63698380D02*
X139160190Y-62698380D01*
X139064952Y-62841238D01*
X138969714Y-62936476D01*
X138874476Y-62984095D01*
%TO.C,J2*%
X171372666Y-53692380D02*
X171372666Y-54406666D01*
X171325047Y-54549523D01*
X171229809Y-54644761D01*
X171086952Y-54692380D01*
X170991714Y-54692380D01*
X171801238Y-53787619D02*
X171848857Y-53740000D01*
X171944095Y-53692380D01*
X172182190Y-53692380D01*
X172277428Y-53740000D01*
X172325047Y-53787619D01*
X172372666Y-53882857D01*
X172372666Y-53978095D01*
X172325047Y-54120952D01*
X171753619Y-54692380D01*
X172372666Y-54692380D01*
X170948857Y-52944761D02*
X171091714Y-52992380D01*
X171329809Y-52992380D01*
X171425047Y-52944761D01*
X171472666Y-52897142D01*
X171520285Y-52801904D01*
X171520285Y-52706666D01*
X171472666Y-52611428D01*
X171425047Y-52563809D01*
X171329809Y-52516190D01*
X171139333Y-52468571D01*
X171044095Y-52420952D01*
X170996476Y-52373333D01*
X170948857Y-52278095D01*
X170948857Y-52182857D01*
X170996476Y-52087619D01*
X171044095Y-52040000D01*
X171139333Y-51992380D01*
X171377428Y-51992380D01*
X171520285Y-52040000D01*
X171853619Y-51992380D02*
X172091714Y-52992380D01*
X172282190Y-52278095D01*
X172472666Y-52992380D01*
X172710761Y-51992380D01*
X173091714Y-52992380D02*
X173091714Y-51992380D01*
X173329809Y-51992380D01*
X173472666Y-52040000D01*
X173567904Y-52135238D01*
X173615523Y-52230476D01*
X173663142Y-52420952D01*
X173663142Y-52563809D01*
X173615523Y-52754285D01*
X173567904Y-52849523D01*
X173472666Y-52944761D01*
X173329809Y-52992380D01*
X173091714Y-52992380D01*
X161710761Y-58530952D02*
X161758380Y-58388095D01*
X161758380Y-58150000D01*
X161710761Y-58054761D01*
X161663142Y-58007142D01*
X161567904Y-57959523D01*
X161472666Y-57959523D01*
X161377428Y-58007142D01*
X161329809Y-58054761D01*
X161282190Y-58150000D01*
X161234571Y-58340476D01*
X161186952Y-58435714D01*
X161139333Y-58483333D01*
X161044095Y-58530952D01*
X160948857Y-58530952D01*
X160853619Y-58483333D01*
X160806000Y-58435714D01*
X160758380Y-58340476D01*
X160758380Y-58102380D01*
X160806000Y-57959523D01*
X160758380Y-57626190D02*
X161758380Y-57388095D01*
X161044095Y-57197619D01*
X161758380Y-57007142D01*
X160758380Y-56769047D01*
X160758380Y-56197619D02*
X160758380Y-56007142D01*
X160806000Y-55911904D01*
X160901238Y-55816666D01*
X161091714Y-55769047D01*
X161425047Y-55769047D01*
X161615523Y-55816666D01*
X161710761Y-55911904D01*
X161758380Y-56007142D01*
X161758380Y-56197619D01*
X161710761Y-56292857D01*
X161615523Y-56388095D01*
X161425047Y-56435714D01*
X161091714Y-56435714D01*
X160901238Y-56388095D01*
X160806000Y-56292857D01*
X160758380Y-56197619D01*
X158948380Y-58792857D02*
X157948380Y-58792857D01*
X158948380Y-58221428D01*
X157948380Y-58221428D01*
X158948380Y-57173809D02*
X158472190Y-57507142D01*
X158948380Y-57745238D02*
X157948380Y-57745238D01*
X157948380Y-57364285D01*
X157996000Y-57269047D01*
X158043619Y-57221428D01*
X158138857Y-57173809D01*
X158281714Y-57173809D01*
X158376952Y-57221428D01*
X158424571Y-57269047D01*
X158472190Y-57364285D01*
X158472190Y-57745238D01*
X158900761Y-56792857D02*
X158948380Y-56650000D01*
X158948380Y-56411904D01*
X158900761Y-56316666D01*
X158853142Y-56269047D01*
X158757904Y-56221428D01*
X158662666Y-56221428D01*
X158567428Y-56269047D01*
X158519809Y-56316666D01*
X158472190Y-56411904D01*
X158424571Y-56602380D01*
X158376952Y-56697619D01*
X158329333Y-56745238D01*
X158234095Y-56792857D01*
X158138857Y-56792857D01*
X158043619Y-56745238D01*
X157996000Y-56697619D01*
X157948380Y-56602380D01*
X157948380Y-56364285D01*
X157996000Y-56221428D01*
X157948380Y-55935714D02*
X157948380Y-55364285D01*
X158948380Y-55650000D02*
X157948380Y-55650000D01*
X166710761Y-59904047D02*
X166758380Y-59761190D01*
X166758380Y-59523095D01*
X166710761Y-59427857D01*
X166663142Y-59380238D01*
X166567904Y-59332619D01*
X166472666Y-59332619D01*
X166377428Y-59380238D01*
X166329809Y-59427857D01*
X166282190Y-59523095D01*
X166234571Y-59713571D01*
X166186952Y-59808809D01*
X166139333Y-59856428D01*
X166044095Y-59904047D01*
X165948857Y-59904047D01*
X165853619Y-59856428D01*
X165806000Y-59808809D01*
X165758380Y-59713571D01*
X165758380Y-59475476D01*
X165806000Y-59332619D01*
X165758380Y-58999285D02*
X166758380Y-58761190D01*
X166044095Y-58570714D01*
X166758380Y-58380238D01*
X165758380Y-58142142D01*
X166758380Y-57761190D02*
X165758380Y-57761190D01*
X165758380Y-57523095D01*
X165806000Y-57380238D01*
X165901238Y-57285000D01*
X165996476Y-57237380D01*
X166186952Y-57189761D01*
X166329809Y-57189761D01*
X166520285Y-57237380D01*
X166615523Y-57285000D01*
X166710761Y-57380238D01*
X166758380Y-57523095D01*
X166758380Y-57761190D01*
X166758380Y-56761190D02*
X165758380Y-56761190D01*
X165758380Y-56094523D02*
X165758380Y-55904047D01*
X165806000Y-55808809D01*
X165901238Y-55713571D01*
X166091714Y-55665952D01*
X166425047Y-55665952D01*
X166615523Y-55713571D01*
X166710761Y-55808809D01*
X166758380Y-55904047D01*
X166758380Y-56094523D01*
X166710761Y-56189761D01*
X166615523Y-56285000D01*
X166425047Y-56332619D01*
X166091714Y-56332619D01*
X165901238Y-56285000D01*
X165806000Y-56189761D01*
X165758380Y-56094523D01*
X164210761Y-60046904D02*
X164258380Y-59904047D01*
X164258380Y-59665952D01*
X164210761Y-59570714D01*
X164163142Y-59523095D01*
X164067904Y-59475476D01*
X163972666Y-59475476D01*
X163877428Y-59523095D01*
X163829809Y-59570714D01*
X163782190Y-59665952D01*
X163734571Y-59856428D01*
X163686952Y-59951666D01*
X163639333Y-59999285D01*
X163544095Y-60046904D01*
X163448857Y-60046904D01*
X163353619Y-59999285D01*
X163306000Y-59951666D01*
X163258380Y-59856428D01*
X163258380Y-59618333D01*
X163306000Y-59475476D01*
X163258380Y-59142142D02*
X164258380Y-58904047D01*
X163544095Y-58713571D01*
X164258380Y-58523095D01*
X163258380Y-58285000D01*
X164163142Y-57332619D02*
X164210761Y-57380238D01*
X164258380Y-57523095D01*
X164258380Y-57618333D01*
X164210761Y-57761190D01*
X164115523Y-57856428D01*
X164020285Y-57904047D01*
X163829809Y-57951666D01*
X163686952Y-57951666D01*
X163496476Y-57904047D01*
X163401238Y-57856428D01*
X163306000Y-57761190D01*
X163258380Y-57618333D01*
X163258380Y-57523095D01*
X163306000Y-57380238D01*
X163353619Y-57332619D01*
X164258380Y-56427857D02*
X164258380Y-56904047D01*
X163258380Y-56904047D01*
X164258380Y-56094523D02*
X163258380Y-56094523D01*
X164258380Y-55523095D02*
X163686952Y-55951666D01*
X163258380Y-55523095D02*
X163829809Y-56094523D01*
X168308380Y-58388095D02*
X168308380Y-57769047D01*
X168689333Y-58102380D01*
X168689333Y-57959523D01*
X168736952Y-57864285D01*
X168784571Y-57816666D01*
X168879809Y-57769047D01*
X169117904Y-57769047D01*
X169213142Y-57816666D01*
X169260761Y-57864285D01*
X169308380Y-57959523D01*
X169308380Y-58245238D01*
X169260761Y-58340476D01*
X169213142Y-58388095D01*
X168308380Y-57483333D02*
X169308380Y-57150000D01*
X168308380Y-56816666D01*
X168308380Y-56578571D02*
X168308380Y-55959523D01*
X168689333Y-56292857D01*
X168689333Y-56150000D01*
X168736952Y-56054761D01*
X168784571Y-56007142D01*
X168879809Y-55959523D01*
X169117904Y-55959523D01*
X169213142Y-56007142D01*
X169260761Y-56054761D01*
X169308380Y-56150000D01*
X169308380Y-56435714D01*
X169260761Y-56530952D01*
X169213142Y-56578571D01*
%TO.C,SW1*%
X109997761Y-71183333D02*
X110045380Y-71040476D01*
X110045380Y-70802380D01*
X109997761Y-70707142D01*
X109950142Y-70659523D01*
X109854904Y-70611904D01*
X109759666Y-70611904D01*
X109664428Y-70659523D01*
X109616809Y-70707142D01*
X109569190Y-70802380D01*
X109521571Y-70992857D01*
X109473952Y-71088095D01*
X109426333Y-71135714D01*
X109331095Y-71183333D01*
X109235857Y-71183333D01*
X109140619Y-71135714D01*
X109093000Y-71088095D01*
X109045380Y-70992857D01*
X109045380Y-70754761D01*
X109093000Y-70611904D01*
X109045380Y-70278571D02*
X110045380Y-70040476D01*
X109331095Y-69850000D01*
X110045380Y-69659523D01*
X109045380Y-69421428D01*
X110045380Y-68516666D02*
X110045380Y-69088095D01*
X110045380Y-68802380D02*
X109045380Y-68802380D01*
X109188238Y-68897619D01*
X109283476Y-68992857D01*
X109331095Y-69088095D01*
%TO.C,C19*%
X162425142Y-66143142D02*
X162377523Y-66190761D01*
X162234666Y-66238380D01*
X162139428Y-66238380D01*
X161996571Y-66190761D01*
X161901333Y-66095523D01*
X161853714Y-66000285D01*
X161806095Y-65809809D01*
X161806095Y-65666952D01*
X161853714Y-65476476D01*
X161901333Y-65381238D01*
X161996571Y-65286000D01*
X162139428Y-65238380D01*
X162234666Y-65238380D01*
X162377523Y-65286000D01*
X162425142Y-65333619D01*
X163377523Y-66238380D02*
X162806095Y-66238380D01*
X163091809Y-66238380D02*
X163091809Y-65238380D01*
X162996571Y-65381238D01*
X162901333Y-65476476D01*
X162806095Y-65524095D01*
X163853714Y-66238380D02*
X164044190Y-66238380D01*
X164139428Y-66190761D01*
X164187047Y-66143142D01*
X164282285Y-66000285D01*
X164329904Y-65809809D01*
X164329904Y-65428857D01*
X164282285Y-65333619D01*
X164234666Y-65286000D01*
X164139428Y-65238380D01*
X163948952Y-65238380D01*
X163853714Y-65286000D01*
X163806095Y-65333619D01*
X163758476Y-65428857D01*
X163758476Y-65666952D01*
X163806095Y-65762190D01*
X163853714Y-65809809D01*
X163948952Y-65857428D01*
X164139428Y-65857428D01*
X164234666Y-65809809D01*
X164282285Y-65762190D01*
X164329904Y-65666952D01*
%TO.C,C15*%
X137279142Y-66397142D02*
X137231523Y-66444761D01*
X137088666Y-66492380D01*
X136993428Y-66492380D01*
X136850571Y-66444761D01*
X136755333Y-66349523D01*
X136707714Y-66254285D01*
X136660095Y-66063809D01*
X136660095Y-65920952D01*
X136707714Y-65730476D01*
X136755333Y-65635238D01*
X136850571Y-65540000D01*
X136993428Y-65492380D01*
X137088666Y-65492380D01*
X137231523Y-65540000D01*
X137279142Y-65587619D01*
X138231523Y-66492380D02*
X137660095Y-66492380D01*
X137945809Y-66492380D02*
X137945809Y-65492380D01*
X137850571Y-65635238D01*
X137755333Y-65730476D01*
X137660095Y-65778095D01*
X139136285Y-65492380D02*
X138660095Y-65492380D01*
X138612476Y-65968571D01*
X138660095Y-65920952D01*
X138755333Y-65873333D01*
X138993428Y-65873333D01*
X139088666Y-65920952D01*
X139136285Y-65968571D01*
X139183904Y-66063809D01*
X139183904Y-66301904D01*
X139136285Y-66397142D01*
X139088666Y-66444761D01*
X138993428Y-66492380D01*
X138755333Y-66492380D01*
X138660095Y-66444761D01*
X138612476Y-66397142D01*
%TO.C,R10*%
X168854380Y-123324857D02*
X168378190Y-123658190D01*
X168854380Y-123896285D02*
X167854380Y-123896285D01*
X167854380Y-123515333D01*
X167902000Y-123420095D01*
X167949619Y-123372476D01*
X168044857Y-123324857D01*
X168187714Y-123324857D01*
X168282952Y-123372476D01*
X168330571Y-123420095D01*
X168378190Y-123515333D01*
X168378190Y-123896285D01*
X168854380Y-122372476D02*
X168854380Y-122943904D01*
X168854380Y-122658190D02*
X167854380Y-122658190D01*
X167997238Y-122753428D01*
X168092476Y-122848666D01*
X168140095Y-122943904D01*
X167854380Y-121753428D02*
X167854380Y-121658190D01*
X167902000Y-121562952D01*
X167949619Y-121515333D01*
X168044857Y-121467714D01*
X168235333Y-121420095D01*
X168473428Y-121420095D01*
X168663904Y-121467714D01*
X168759142Y-121515333D01*
X168806761Y-121562952D01*
X168854380Y-121658190D01*
X168854380Y-121753428D01*
X168806761Y-121848666D01*
X168759142Y-121896285D01*
X168663904Y-121943904D01*
X168473428Y-121991523D01*
X168235333Y-121991523D01*
X168044857Y-121943904D01*
X167949619Y-121896285D01*
X167902000Y-121848666D01*
X167854380Y-121753428D01*
%TO.C,J15*%
X182832476Y-99528380D02*
X182832476Y-100242666D01*
X182784857Y-100385523D01*
X182689619Y-100480761D01*
X182546761Y-100528380D01*
X182451523Y-100528380D01*
X183832476Y-100528380D02*
X183261047Y-100528380D01*
X183546761Y-100528380D02*
X183546761Y-99528380D01*
X183451523Y-99671238D01*
X183356285Y-99766476D01*
X183261047Y-99814095D01*
X184737238Y-99528380D02*
X184261047Y-99528380D01*
X184213428Y-100004571D01*
X184261047Y-99956952D01*
X184356285Y-99909333D01*
X184594380Y-99909333D01*
X184689619Y-99956952D01*
X184737238Y-100004571D01*
X184784857Y-100099809D01*
X184784857Y-100337904D01*
X184737238Y-100433142D01*
X184689619Y-100480761D01*
X184594380Y-100528380D01*
X184356285Y-100528380D01*
X184261047Y-100480761D01*
X184213428Y-100433142D01*
X182577809Y-97878380D02*
X183196857Y-97878380D01*
X182863523Y-98259333D01*
X183006380Y-98259333D01*
X183101619Y-98306952D01*
X183149238Y-98354571D01*
X183196857Y-98449809D01*
X183196857Y-98687904D01*
X183149238Y-98783142D01*
X183101619Y-98830761D01*
X183006380Y-98878380D01*
X182720666Y-98878380D01*
X182625428Y-98830761D01*
X182577809Y-98783142D01*
X183625428Y-98783142D02*
X183673047Y-98830761D01*
X183625428Y-98878380D01*
X183577809Y-98830761D01*
X183625428Y-98783142D01*
X183625428Y-98878380D01*
X184006380Y-97878380D02*
X184625428Y-97878380D01*
X184292095Y-98259333D01*
X184434952Y-98259333D01*
X184530190Y-98306952D01*
X184577809Y-98354571D01*
X184625428Y-98449809D01*
X184625428Y-98687904D01*
X184577809Y-98783142D01*
X184530190Y-98830761D01*
X184434952Y-98878380D01*
X184149238Y-98878380D01*
X184054000Y-98830761D01*
X184006380Y-98783142D01*
X184911142Y-97878380D02*
X185244476Y-98878380D01*
X185577809Y-97878380D01*
%TO.C,U4*%
X155576095Y-58716380D02*
X155576095Y-59525904D01*
X155623714Y-59621142D01*
X155671333Y-59668761D01*
X155766571Y-59716380D01*
X155957047Y-59716380D01*
X156052285Y-59668761D01*
X156099904Y-59621142D01*
X156147523Y-59525904D01*
X156147523Y-58716380D01*
X157052285Y-59049714D02*
X157052285Y-59716380D01*
X156814190Y-58668761D02*
X156576095Y-59383047D01*
X157195142Y-59383047D01*
%TO.C,J4*%
X159694666Y-128311380D02*
X159694666Y-129025666D01*
X159647047Y-129168523D01*
X159551809Y-129263761D01*
X159408952Y-129311380D01*
X159313714Y-129311380D01*
X160599428Y-128644714D02*
X160599428Y-129311380D01*
X160361333Y-128263761D02*
X160123238Y-128978047D01*
X160742285Y-128978047D01*
X165563714Y-134225666D02*
X166039904Y-134225666D01*
X165468476Y-134511380D02*
X165801809Y-133511380D01*
X166135142Y-134511380D01*
X166420857Y-133606619D02*
X166468476Y-133559000D01*
X166563714Y-133511380D01*
X166801809Y-133511380D01*
X166897047Y-133559000D01*
X166944666Y-133606619D01*
X166992285Y-133701857D01*
X166992285Y-133797095D01*
X166944666Y-133939952D01*
X166373238Y-134511380D01*
X166992285Y-134511380D01*
X168063714Y-134275666D02*
X168539904Y-134275666D01*
X167968476Y-134561380D02*
X168301809Y-133561380D01*
X168635142Y-134561380D01*
X168873238Y-133561380D02*
X169492285Y-133561380D01*
X169158952Y-133942333D01*
X169301809Y-133942333D01*
X169397047Y-133989952D01*
X169444666Y-134037571D01*
X169492285Y-134132809D01*
X169492285Y-134370904D01*
X169444666Y-134466142D01*
X169397047Y-134513761D01*
X169301809Y-134561380D01*
X169016095Y-134561380D01*
X168920857Y-134513761D01*
X168873238Y-134466142D01*
X173113714Y-134225666D02*
X173589904Y-134225666D01*
X173018476Y-134511380D02*
X173351809Y-133511380D01*
X173685142Y-134511380D01*
X174494666Y-133511380D02*
X174018476Y-133511380D01*
X173970857Y-133987571D01*
X174018476Y-133939952D01*
X174113714Y-133892333D01*
X174351809Y-133892333D01*
X174447047Y-133939952D01*
X174494666Y-133987571D01*
X174542285Y-134082809D01*
X174542285Y-134320904D01*
X174494666Y-134416142D01*
X174447047Y-134463761D01*
X174351809Y-134511380D01*
X174113714Y-134511380D01*
X174018476Y-134463761D01*
X173970857Y-134416142D01*
X170613714Y-134275666D02*
X171089904Y-134275666D01*
X170518476Y-134561380D02*
X170851809Y-133561380D01*
X171185142Y-134561380D01*
X171947047Y-133894714D02*
X171947047Y-134561380D01*
X171708952Y-133513761D02*
X171470857Y-134228047D01*
X172089904Y-134228047D01*
X160363714Y-134225666D02*
X160839904Y-134225666D01*
X160268476Y-134511380D02*
X160601809Y-133511380D01*
X160935142Y-134511380D01*
X161458952Y-133511380D02*
X161554190Y-133511380D01*
X161649428Y-133559000D01*
X161697047Y-133606619D01*
X161744666Y-133701857D01*
X161792285Y-133892333D01*
X161792285Y-134130428D01*
X161744666Y-134320904D01*
X161697047Y-134416142D01*
X161649428Y-134463761D01*
X161554190Y-134511380D01*
X161458952Y-134511380D01*
X161363714Y-134463761D01*
X161316095Y-134416142D01*
X161268476Y-134320904D01*
X161220857Y-134130428D01*
X161220857Y-133892333D01*
X161268476Y-133701857D01*
X161316095Y-133606619D01*
X161363714Y-133559000D01*
X161458952Y-133511380D01*
X163013714Y-134225666D02*
X163489904Y-134225666D01*
X162918476Y-134511380D02*
X163251809Y-133511380D01*
X163585142Y-134511380D01*
X164442285Y-134511380D02*
X163870857Y-134511380D01*
X164156571Y-134511380D02*
X164156571Y-133511380D01*
X164061333Y-133654238D01*
X163966095Y-133749476D01*
X163870857Y-133797095D01*
%TO.C,C13*%
X148709142Y-76801142D02*
X148661523Y-76848761D01*
X148518666Y-76896380D01*
X148423428Y-76896380D01*
X148280571Y-76848761D01*
X148185333Y-76753523D01*
X148137714Y-76658285D01*
X148090095Y-76467809D01*
X148090095Y-76324952D01*
X148137714Y-76134476D01*
X148185333Y-76039238D01*
X148280571Y-75944000D01*
X148423428Y-75896380D01*
X148518666Y-75896380D01*
X148661523Y-75944000D01*
X148709142Y-75991619D01*
X149661523Y-76896380D02*
X149090095Y-76896380D01*
X149375809Y-76896380D02*
X149375809Y-75896380D01*
X149280571Y-76039238D01*
X149185333Y-76134476D01*
X149090095Y-76182095D01*
X149994857Y-75896380D02*
X150613904Y-75896380D01*
X150280571Y-76277333D01*
X150423428Y-76277333D01*
X150518666Y-76324952D01*
X150566285Y-76372571D01*
X150613904Y-76467809D01*
X150613904Y-76705904D01*
X150566285Y-76801142D01*
X150518666Y-76848761D01*
X150423428Y-76896380D01*
X150137714Y-76896380D01*
X150042476Y-76848761D01*
X149994857Y-76801142D01*
%TO.C,J9*%
X132548380Y-65596333D02*
X133262666Y-65596333D01*
X133405523Y-65643952D01*
X133500761Y-65739190D01*
X133548380Y-65882047D01*
X133548380Y-65977285D01*
X133548380Y-65072523D02*
X133548380Y-64882047D01*
X133500761Y-64786809D01*
X133453142Y-64739190D01*
X133310285Y-64643952D01*
X133119809Y-64596333D01*
X132738857Y-64596333D01*
X132643619Y-64643952D01*
X132596000Y-64691571D01*
X132548380Y-64786809D01*
X132548380Y-64977285D01*
X132596000Y-65072523D01*
X132643619Y-65120142D01*
X132738857Y-65167761D01*
X132976952Y-65167761D01*
X133072190Y-65120142D01*
X133119809Y-65072523D01*
X133167428Y-64977285D01*
X133167428Y-64786809D01*
X133119809Y-64691571D01*
X133072190Y-64643952D01*
X132976952Y-64596333D01*
X131770380Y-65953380D02*
X130770380Y-65953380D01*
X130865619Y-65524809D02*
X130818000Y-65477190D01*
X130770380Y-65381952D01*
X130770380Y-65143857D01*
X130818000Y-65048619D01*
X130865619Y-65001000D01*
X130960857Y-64953380D01*
X131056095Y-64953380D01*
X131198952Y-65001000D01*
X131770380Y-65572428D01*
X131770380Y-64953380D01*
X131675142Y-63953380D02*
X131722761Y-64001000D01*
X131770380Y-64143857D01*
X131770380Y-64239095D01*
X131722761Y-64381952D01*
X131627523Y-64477190D01*
X131532285Y-64524809D01*
X131341809Y-64572428D01*
X131198952Y-64572428D01*
X131008476Y-64524809D01*
X130913238Y-64477190D01*
X130818000Y-64381952D01*
X130770380Y-64239095D01*
X130770380Y-64143857D01*
X130818000Y-64001000D01*
X130865619Y-63953380D01*
X130770380Y-63620047D02*
X130770380Y-63001000D01*
X131151333Y-63334333D01*
X131151333Y-63191476D01*
X131198952Y-63096238D01*
X131246571Y-63048619D01*
X131341809Y-63001000D01*
X131579904Y-63001000D01*
X131675142Y-63048619D01*
X131722761Y-63096238D01*
X131770380Y-63191476D01*
X131770380Y-63477190D01*
X131722761Y-63572428D01*
X131675142Y-63620047D01*
X127587523Y-68725761D02*
X127730380Y-68773380D01*
X127968476Y-68773380D01*
X128063714Y-68725761D01*
X128111333Y-68678142D01*
X128158952Y-68582904D01*
X128158952Y-68487666D01*
X128111333Y-68392428D01*
X128063714Y-68344809D01*
X127968476Y-68297190D01*
X127778000Y-68249571D01*
X127682761Y-68201952D01*
X127635142Y-68154333D01*
X127587523Y-68059095D01*
X127587523Y-67963857D01*
X127635142Y-67868619D01*
X127682761Y-67821000D01*
X127778000Y-67773380D01*
X128016095Y-67773380D01*
X128158952Y-67821000D01*
X129158952Y-68678142D02*
X129111333Y-68725761D01*
X128968476Y-68773380D01*
X128873238Y-68773380D01*
X128730380Y-68725761D01*
X128635142Y-68630523D01*
X128587523Y-68535285D01*
X128539904Y-68344809D01*
X128539904Y-68201952D01*
X128587523Y-68011476D01*
X128635142Y-67916238D01*
X128730380Y-67821000D01*
X128873238Y-67773380D01*
X128968476Y-67773380D01*
X129111333Y-67821000D01*
X129158952Y-67868619D01*
X130063714Y-68773380D02*
X129587523Y-68773380D01*
X129587523Y-67773380D01*
X127563714Y-71295761D02*
X127706571Y-71343380D01*
X127944666Y-71343380D01*
X128039904Y-71295761D01*
X128087523Y-71248142D01*
X128135142Y-71152904D01*
X128135142Y-71057666D01*
X128087523Y-70962428D01*
X128039904Y-70914809D01*
X127944666Y-70867190D01*
X127754190Y-70819571D01*
X127658952Y-70771952D01*
X127611333Y-70724333D01*
X127563714Y-70629095D01*
X127563714Y-70533857D01*
X127611333Y-70438619D01*
X127658952Y-70391000D01*
X127754190Y-70343380D01*
X127992285Y-70343380D01*
X128135142Y-70391000D01*
X128563714Y-71343380D02*
X128563714Y-70343380D01*
X128801809Y-70343380D01*
X128944666Y-70391000D01*
X129039904Y-70486238D01*
X129087523Y-70581476D01*
X129135142Y-70771952D01*
X129135142Y-70914809D01*
X129087523Y-71105285D01*
X129039904Y-71200523D01*
X128944666Y-71295761D01*
X128801809Y-71343380D01*
X128563714Y-71343380D01*
X129516095Y-71057666D02*
X129992285Y-71057666D01*
X129420857Y-71343380D02*
X129754190Y-70343380D01*
X130087523Y-71343380D01*
%TO.C,J10*%
X174196476Y-64960380D02*
X174196476Y-65674666D01*
X174148857Y-65817523D01*
X174053619Y-65912761D01*
X173910761Y-65960380D01*
X173815523Y-65960380D01*
X175196476Y-65960380D02*
X174625047Y-65960380D01*
X174910761Y-65960380D02*
X174910761Y-64960380D01*
X174815523Y-65103238D01*
X174720285Y-65198476D01*
X174625047Y-65246095D01*
X175815523Y-64960380D02*
X175910761Y-64960380D01*
X176006000Y-65008000D01*
X176053619Y-65055619D01*
X176101238Y-65150857D01*
X176148857Y-65341333D01*
X176148857Y-65579428D01*
X176101238Y-65769904D01*
X176053619Y-65865142D01*
X176006000Y-65912761D01*
X175910761Y-65960380D01*
X175815523Y-65960380D01*
X175720285Y-65912761D01*
X175672666Y-65865142D01*
X175625047Y-65769904D01*
X175577428Y-65579428D01*
X175577428Y-65341333D01*
X175625047Y-65150857D01*
X175672666Y-65055619D01*
X175720285Y-65008000D01*
X175815523Y-64960380D01*
%TO.C,R5*%
X133183333Y-86304380D02*
X132850000Y-85828190D01*
X132611904Y-86304380D02*
X132611904Y-85304380D01*
X132992857Y-85304380D01*
X133088095Y-85352000D01*
X133135714Y-85399619D01*
X133183333Y-85494857D01*
X133183333Y-85637714D01*
X133135714Y-85732952D01*
X133088095Y-85780571D01*
X132992857Y-85828190D01*
X132611904Y-85828190D01*
X134088095Y-85304380D02*
X133611904Y-85304380D01*
X133564285Y-85780571D01*
X133611904Y-85732952D01*
X133707142Y-85685333D01*
X133945238Y-85685333D01*
X134040476Y-85732952D01*
X134088095Y-85780571D01*
X134135714Y-85875809D01*
X134135714Y-86113904D01*
X134088095Y-86209142D01*
X134040476Y-86256761D01*
X133945238Y-86304380D01*
X133707142Y-86304380D01*
X133611904Y-86256761D01*
X133564285Y-86209142D01*
X131976761Y-91704476D02*
X132024380Y-91561619D01*
X132024380Y-91323523D01*
X131976761Y-91228285D01*
X131929142Y-91180666D01*
X131833904Y-91133047D01*
X131738666Y-91133047D01*
X131643428Y-91180666D01*
X131595809Y-91228285D01*
X131548190Y-91323523D01*
X131500571Y-91514000D01*
X131452952Y-91609238D01*
X131405333Y-91656857D01*
X131310095Y-91704476D01*
X131214857Y-91704476D01*
X131119619Y-91656857D01*
X131072000Y-91609238D01*
X131024380Y-91514000D01*
X131024380Y-91275904D01*
X131072000Y-91133047D01*
X132024380Y-90704476D02*
X131024380Y-90704476D01*
X131024380Y-90466380D01*
X131072000Y-90323523D01*
X131167238Y-90228285D01*
X131262476Y-90180666D01*
X131452952Y-90133047D01*
X131595809Y-90133047D01*
X131786285Y-90180666D01*
X131881523Y-90228285D01*
X131976761Y-90323523D01*
X132024380Y-90466380D01*
X132024380Y-90704476D01*
X131738666Y-89752095D02*
X131738666Y-89275904D01*
X132024380Y-89847333D02*
X131024380Y-89514000D01*
X132024380Y-89180666D01*
X132024380Y-88323523D02*
X132024380Y-88894952D01*
X132024380Y-88609238D02*
X131024380Y-88609238D01*
X131167238Y-88704476D01*
X131262476Y-88799714D01*
X131310095Y-88894952D01*
%TO.C,J13*%
X176990476Y-68286380D02*
X176990476Y-69000666D01*
X176942857Y-69143523D01*
X176847619Y-69238761D01*
X176704761Y-69286380D01*
X176609523Y-69286380D01*
X177990476Y-69286380D02*
X177419047Y-69286380D01*
X177704761Y-69286380D02*
X177704761Y-68286380D01*
X177609523Y-68429238D01*
X177514285Y-68524476D01*
X177419047Y-68572095D01*
X178323809Y-68286380D02*
X178942857Y-68286380D01*
X178609523Y-68667333D01*
X178752380Y-68667333D01*
X178847619Y-68714952D01*
X178895238Y-68762571D01*
X178942857Y-68857809D01*
X178942857Y-69095904D01*
X178895238Y-69191142D01*
X178847619Y-69238761D01*
X178752380Y-69286380D01*
X178466666Y-69286380D01*
X178371428Y-69238761D01*
X178323809Y-69191142D01*
X173728380Y-69810380D02*
X173728380Y-70619904D01*
X173776000Y-70715142D01*
X173823619Y-70762761D01*
X173918857Y-70810380D01*
X174109333Y-70810380D01*
X174204571Y-70762761D01*
X174252190Y-70715142D01*
X174299809Y-70619904D01*
X174299809Y-69810380D01*
X174728380Y-70762761D02*
X174871238Y-70810380D01*
X175109333Y-70810380D01*
X175204571Y-70762761D01*
X175252190Y-70715142D01*
X175299809Y-70619904D01*
X175299809Y-70524666D01*
X175252190Y-70429428D01*
X175204571Y-70381809D01*
X175109333Y-70334190D01*
X174918857Y-70286571D01*
X174823619Y-70238952D01*
X174776000Y-70191333D01*
X174728380Y-70096095D01*
X174728380Y-70000857D01*
X174776000Y-69905619D01*
X174823619Y-69858000D01*
X174918857Y-69810380D01*
X175156952Y-69810380D01*
X175299809Y-69858000D01*
X175680761Y-70524666D02*
X176156952Y-70524666D01*
X175585523Y-70810380D02*
X175918857Y-69810380D01*
X176252190Y-70810380D01*
X177156952Y-70810380D02*
X176823619Y-70334190D01*
X176585523Y-70810380D02*
X176585523Y-69810380D01*
X176966476Y-69810380D01*
X177061714Y-69858000D01*
X177109333Y-69905619D01*
X177156952Y-70000857D01*
X177156952Y-70143714D01*
X177109333Y-70238952D01*
X177061714Y-70286571D01*
X176966476Y-70334190D01*
X176585523Y-70334190D01*
X177442666Y-69810380D02*
X178014095Y-69810380D01*
X177728380Y-70810380D02*
X177728380Y-69810380D01*
X178252190Y-69810380D02*
X178871238Y-69810380D01*
X178537904Y-70191333D01*
X178680761Y-70191333D01*
X178776000Y-70238952D01*
X178823619Y-70286571D01*
X178871238Y-70381809D01*
X178871238Y-70619904D01*
X178823619Y-70715142D01*
X178776000Y-70762761D01*
X178680761Y-70810380D01*
X178395047Y-70810380D01*
X178299809Y-70762761D01*
X178252190Y-70715142D01*
X179832095Y-72398000D02*
X179736857Y-72350380D01*
X179594000Y-72350380D01*
X179451142Y-72398000D01*
X179355904Y-72493238D01*
X179308285Y-72588476D01*
X179260666Y-72778952D01*
X179260666Y-72921809D01*
X179308285Y-73112285D01*
X179355904Y-73207523D01*
X179451142Y-73302761D01*
X179594000Y-73350380D01*
X179689238Y-73350380D01*
X179832095Y-73302761D01*
X179879714Y-73255142D01*
X179879714Y-72921809D01*
X179689238Y-72921809D01*
X180308285Y-73350380D02*
X180308285Y-72350380D01*
X180879714Y-73350380D01*
X180879714Y-72350380D01*
X181355904Y-73350380D02*
X181355904Y-72350380D01*
X181594000Y-72350380D01*
X181736857Y-72398000D01*
X181832095Y-72493238D01*
X181879714Y-72588476D01*
X181927333Y-72778952D01*
X181927333Y-72921809D01*
X181879714Y-73112285D01*
X181832095Y-73207523D01*
X181736857Y-73302761D01*
X181594000Y-73350380D01*
X181355904Y-73350380D01*
X179324095Y-77430380D02*
X179895523Y-77430380D01*
X179609809Y-78430380D02*
X179609809Y-77430380D01*
X180133619Y-77430380D02*
X180800285Y-78430380D01*
X180800285Y-77430380D02*
X180133619Y-78430380D01*
X179919333Y-75890380D02*
X179586000Y-75414190D01*
X179347904Y-75890380D02*
X179347904Y-74890380D01*
X179728857Y-74890380D01*
X179824095Y-74938000D01*
X179871714Y-74985619D01*
X179919333Y-75080857D01*
X179919333Y-75223714D01*
X179871714Y-75318952D01*
X179824095Y-75366571D01*
X179728857Y-75414190D01*
X179347904Y-75414190D01*
X180252666Y-74890380D02*
X180919333Y-75890380D01*
X180919333Y-74890380D02*
X180252666Y-75890380D01*
%TO.C,C20*%
X140835142Y-74779142D02*
X140787523Y-74826761D01*
X140644666Y-74874380D01*
X140549428Y-74874380D01*
X140406571Y-74826761D01*
X140311333Y-74731523D01*
X140263714Y-74636285D01*
X140216095Y-74445809D01*
X140216095Y-74302952D01*
X140263714Y-74112476D01*
X140311333Y-74017238D01*
X140406571Y-73922000D01*
X140549428Y-73874380D01*
X140644666Y-73874380D01*
X140787523Y-73922000D01*
X140835142Y-73969619D01*
X141216095Y-73969619D02*
X141263714Y-73922000D01*
X141358952Y-73874380D01*
X141597047Y-73874380D01*
X141692285Y-73922000D01*
X141739904Y-73969619D01*
X141787523Y-74064857D01*
X141787523Y-74160095D01*
X141739904Y-74302952D01*
X141168476Y-74874380D01*
X141787523Y-74874380D01*
X142406571Y-73874380D02*
X142501809Y-73874380D01*
X142597047Y-73922000D01*
X142644666Y-73969619D01*
X142692285Y-74064857D01*
X142739904Y-74255333D01*
X142739904Y-74493428D01*
X142692285Y-74683904D01*
X142644666Y-74779142D01*
X142597047Y-74826761D01*
X142501809Y-74874380D01*
X142406571Y-74874380D01*
X142311333Y-74826761D01*
X142263714Y-74779142D01*
X142216095Y-74683904D01*
X142168476Y-74493428D01*
X142168476Y-74255333D01*
X142216095Y-74064857D01*
X142263714Y-73969619D01*
X142311333Y-73922000D01*
X142406571Y-73874380D01*
%TO.C,R8*%
X164028380Y-123356666D02*
X163552190Y-123690000D01*
X164028380Y-123928095D02*
X163028380Y-123928095D01*
X163028380Y-123547142D01*
X163076000Y-123451904D01*
X163123619Y-123404285D01*
X163218857Y-123356666D01*
X163361714Y-123356666D01*
X163456952Y-123404285D01*
X163504571Y-123451904D01*
X163552190Y-123547142D01*
X163552190Y-123928095D01*
X163456952Y-122785238D02*
X163409333Y-122880476D01*
X163361714Y-122928095D01*
X163266476Y-122975714D01*
X163218857Y-122975714D01*
X163123619Y-122928095D01*
X163076000Y-122880476D01*
X163028380Y-122785238D01*
X163028380Y-122594761D01*
X163076000Y-122499523D01*
X163123619Y-122451904D01*
X163218857Y-122404285D01*
X163266476Y-122404285D01*
X163361714Y-122451904D01*
X163409333Y-122499523D01*
X163456952Y-122594761D01*
X163456952Y-122785238D01*
X163504571Y-122880476D01*
X163552190Y-122928095D01*
X163647428Y-122975714D01*
X163837904Y-122975714D01*
X163933142Y-122928095D01*
X163980761Y-122880476D01*
X164028380Y-122785238D01*
X164028380Y-122594761D01*
X163980761Y-122499523D01*
X163933142Y-122451904D01*
X163837904Y-122404285D01*
X163647428Y-122404285D01*
X163552190Y-122451904D01*
X163504571Y-122499523D01*
X163456952Y-122594761D01*
%TO.C,C18*%
X146677142Y-60809142D02*
X146629523Y-60856761D01*
X146486666Y-60904380D01*
X146391428Y-60904380D01*
X146248571Y-60856761D01*
X146153333Y-60761523D01*
X146105714Y-60666285D01*
X146058095Y-60475809D01*
X146058095Y-60332952D01*
X146105714Y-60142476D01*
X146153333Y-60047238D01*
X146248571Y-59952000D01*
X146391428Y-59904380D01*
X146486666Y-59904380D01*
X146629523Y-59952000D01*
X146677142Y-59999619D01*
X147629523Y-60904380D02*
X147058095Y-60904380D01*
X147343809Y-60904380D02*
X147343809Y-59904380D01*
X147248571Y-60047238D01*
X147153333Y-60142476D01*
X147058095Y-60190095D01*
X148200952Y-60332952D02*
X148105714Y-60285333D01*
X148058095Y-60237714D01*
X148010476Y-60142476D01*
X148010476Y-60094857D01*
X148058095Y-59999619D01*
X148105714Y-59952000D01*
X148200952Y-59904380D01*
X148391428Y-59904380D01*
X148486666Y-59952000D01*
X148534285Y-59999619D01*
X148581904Y-60094857D01*
X148581904Y-60142476D01*
X148534285Y-60237714D01*
X148486666Y-60285333D01*
X148391428Y-60332952D01*
X148200952Y-60332952D01*
X148105714Y-60380571D01*
X148058095Y-60428190D01*
X148010476Y-60523428D01*
X148010476Y-60713904D01*
X148058095Y-60809142D01*
X148105714Y-60856761D01*
X148200952Y-60904380D01*
X148391428Y-60904380D01*
X148486666Y-60856761D01*
X148534285Y-60809142D01*
X148581904Y-60713904D01*
X148581904Y-60523428D01*
X148534285Y-60428190D01*
X148486666Y-60380571D01*
X148391428Y-60332952D01*
%TO.C,J7*%
X123492380Y-65904333D02*
X124206666Y-65904333D01*
X124349523Y-65951952D01*
X124444761Y-66047190D01*
X124492380Y-66190047D01*
X124492380Y-66285285D01*
X123492380Y-65523380D02*
X123492380Y-64856714D01*
X124492380Y-65285285D01*
X122692380Y-66173380D02*
X121692380Y-66173380D01*
X121787619Y-65744809D02*
X121740000Y-65697190D01*
X121692380Y-65601952D01*
X121692380Y-65363857D01*
X121740000Y-65268619D01*
X121787619Y-65221000D01*
X121882857Y-65173380D01*
X121978095Y-65173380D01*
X122120952Y-65221000D01*
X122692380Y-65792428D01*
X122692380Y-65173380D01*
X122597142Y-64173380D02*
X122644761Y-64221000D01*
X122692380Y-64363857D01*
X122692380Y-64459095D01*
X122644761Y-64601952D01*
X122549523Y-64697190D01*
X122454285Y-64744809D01*
X122263809Y-64792428D01*
X122120952Y-64792428D01*
X121930476Y-64744809D01*
X121835238Y-64697190D01*
X121740000Y-64601952D01*
X121692380Y-64459095D01*
X121692380Y-64363857D01*
X121740000Y-64221000D01*
X121787619Y-64173380D01*
X122692380Y-63221000D02*
X122692380Y-63792428D01*
X122692380Y-63506714D02*
X121692380Y-63506714D01*
X121835238Y-63601952D01*
X121930476Y-63697190D01*
X121978095Y-63792428D01*
X118475714Y-71350761D02*
X118618571Y-71398380D01*
X118856666Y-71398380D01*
X118951904Y-71350761D01*
X118999523Y-71303142D01*
X119047142Y-71207904D01*
X119047142Y-71112666D01*
X118999523Y-71017428D01*
X118951904Y-70969809D01*
X118856666Y-70922190D01*
X118666190Y-70874571D01*
X118570952Y-70826952D01*
X118523333Y-70779333D01*
X118475714Y-70684095D01*
X118475714Y-70588857D01*
X118523333Y-70493619D01*
X118570952Y-70446000D01*
X118666190Y-70398380D01*
X118904285Y-70398380D01*
X119047142Y-70446000D01*
X119475714Y-71398380D02*
X119475714Y-70398380D01*
X119713809Y-70398380D01*
X119856666Y-70446000D01*
X119951904Y-70541238D01*
X119999523Y-70636476D01*
X120047142Y-70826952D01*
X120047142Y-70969809D01*
X119999523Y-71160285D01*
X119951904Y-71255523D01*
X119856666Y-71350761D01*
X119713809Y-71398380D01*
X119475714Y-71398380D01*
X120428095Y-71112666D02*
X120904285Y-71112666D01*
X120332857Y-71398380D02*
X120666190Y-70398380D01*
X120999523Y-71398380D01*
X118499523Y-68725761D02*
X118642380Y-68773380D01*
X118880476Y-68773380D01*
X118975714Y-68725761D01*
X119023333Y-68678142D01*
X119070952Y-68582904D01*
X119070952Y-68487666D01*
X119023333Y-68392428D01*
X118975714Y-68344809D01*
X118880476Y-68297190D01*
X118690000Y-68249571D01*
X118594761Y-68201952D01*
X118547142Y-68154333D01*
X118499523Y-68059095D01*
X118499523Y-67963857D01*
X118547142Y-67868619D01*
X118594761Y-67821000D01*
X118690000Y-67773380D01*
X118928095Y-67773380D01*
X119070952Y-67821000D01*
X120070952Y-68678142D02*
X120023333Y-68725761D01*
X119880476Y-68773380D01*
X119785238Y-68773380D01*
X119642380Y-68725761D01*
X119547142Y-68630523D01*
X119499523Y-68535285D01*
X119451904Y-68344809D01*
X119451904Y-68201952D01*
X119499523Y-68011476D01*
X119547142Y-67916238D01*
X119642380Y-67821000D01*
X119785238Y-67773380D01*
X119880476Y-67773380D01*
X120023333Y-67821000D01*
X120070952Y-67868619D01*
X120975714Y-68773380D02*
X120499523Y-68773380D01*
X120499523Y-67773380D01*
%TO.C,R6*%
X127087333Y-86304380D02*
X126754000Y-85828190D01*
X126515904Y-86304380D02*
X126515904Y-85304380D01*
X126896857Y-85304380D01*
X126992095Y-85352000D01*
X127039714Y-85399619D01*
X127087333Y-85494857D01*
X127087333Y-85637714D01*
X127039714Y-85732952D01*
X126992095Y-85780571D01*
X126896857Y-85828190D01*
X126515904Y-85828190D01*
X127944476Y-85304380D02*
X127754000Y-85304380D01*
X127658761Y-85352000D01*
X127611142Y-85399619D01*
X127515904Y-85542476D01*
X127468285Y-85732952D01*
X127468285Y-86113904D01*
X127515904Y-86209142D01*
X127563523Y-86256761D01*
X127658761Y-86304380D01*
X127849238Y-86304380D01*
X127944476Y-86256761D01*
X127992095Y-86209142D01*
X128039714Y-86113904D01*
X128039714Y-85875809D01*
X127992095Y-85780571D01*
X127944476Y-85732952D01*
X127849238Y-85685333D01*
X127658761Y-85685333D01*
X127563523Y-85732952D01*
X127515904Y-85780571D01*
X127468285Y-85875809D01*
X129486761Y-91730666D02*
X129534380Y-91587809D01*
X129534380Y-91349714D01*
X129486761Y-91254476D01*
X129439142Y-91206857D01*
X129343904Y-91159238D01*
X129248666Y-91159238D01*
X129153428Y-91206857D01*
X129105809Y-91254476D01*
X129058190Y-91349714D01*
X129010571Y-91540190D01*
X128962952Y-91635428D01*
X128915333Y-91683047D01*
X128820095Y-91730666D01*
X128724857Y-91730666D01*
X128629619Y-91683047D01*
X128582000Y-91635428D01*
X128534380Y-91540190D01*
X128534380Y-91302095D01*
X128582000Y-91159238D01*
X129439142Y-90159238D02*
X129486761Y-90206857D01*
X129534380Y-90349714D01*
X129534380Y-90444952D01*
X129486761Y-90587809D01*
X129391523Y-90683047D01*
X129296285Y-90730666D01*
X129105809Y-90778285D01*
X128962952Y-90778285D01*
X128772476Y-90730666D01*
X128677238Y-90683047D01*
X128582000Y-90587809D01*
X128534380Y-90444952D01*
X128534380Y-90349714D01*
X128582000Y-90206857D01*
X128629619Y-90159238D01*
X129534380Y-89254476D02*
X129534380Y-89730666D01*
X128534380Y-89730666D01*
X129534380Y-88397333D02*
X129534380Y-88968761D01*
X129534380Y-88683047D02*
X128534380Y-88683047D01*
X128677238Y-88778285D01*
X128772476Y-88873523D01*
X128820095Y-88968761D01*
%TO.C,C22*%
X148707142Y-98134142D02*
X148659523Y-98181761D01*
X148516666Y-98229380D01*
X148421428Y-98229380D01*
X148278571Y-98181761D01*
X148183333Y-98086523D01*
X148135714Y-97991285D01*
X148088095Y-97800809D01*
X148088095Y-97657952D01*
X148135714Y-97467476D01*
X148183333Y-97372238D01*
X148278571Y-97277000D01*
X148421428Y-97229380D01*
X148516666Y-97229380D01*
X148659523Y-97277000D01*
X148707142Y-97324619D01*
X149088095Y-97324619D02*
X149135714Y-97277000D01*
X149230952Y-97229380D01*
X149469047Y-97229380D01*
X149564285Y-97277000D01*
X149611904Y-97324619D01*
X149659523Y-97419857D01*
X149659523Y-97515095D01*
X149611904Y-97657952D01*
X149040476Y-98229380D01*
X149659523Y-98229380D01*
X150040476Y-97324619D02*
X150088095Y-97277000D01*
X150183333Y-97229380D01*
X150421428Y-97229380D01*
X150516666Y-97277000D01*
X150564285Y-97324619D01*
X150611904Y-97419857D01*
X150611904Y-97515095D01*
X150564285Y-97657952D01*
X149992857Y-98229380D01*
X150611904Y-98229380D01*
%TO.C,R12*%
X174280380Y-123226857D02*
X173804190Y-123560190D01*
X174280380Y-123798285D02*
X173280380Y-123798285D01*
X173280380Y-123417333D01*
X173328000Y-123322095D01*
X173375619Y-123274476D01*
X173470857Y-123226857D01*
X173613714Y-123226857D01*
X173708952Y-123274476D01*
X173756571Y-123322095D01*
X173804190Y-123417333D01*
X173804190Y-123798285D01*
X174280380Y-122274476D02*
X174280380Y-122845904D01*
X174280380Y-122560190D02*
X173280380Y-122560190D01*
X173423238Y-122655428D01*
X173518476Y-122750666D01*
X173566095Y-122845904D01*
X173375619Y-121893523D02*
X173328000Y-121845904D01*
X173280380Y-121750666D01*
X173280380Y-121512571D01*
X173328000Y-121417333D01*
X173375619Y-121369714D01*
X173470857Y-121322095D01*
X173566095Y-121322095D01*
X173708952Y-121369714D01*
X174280380Y-121941142D01*
X174280380Y-121322095D01*
%TO.C,J6*%
X154794666Y-80011380D02*
X154794666Y-80725666D01*
X154747047Y-80868523D01*
X154651809Y-80963761D01*
X154508952Y-81011380D01*
X154413714Y-81011380D01*
X155699428Y-80011380D02*
X155508952Y-80011380D01*
X155413714Y-80059000D01*
X155366095Y-80106619D01*
X155270857Y-80249476D01*
X155223238Y-80439952D01*
X155223238Y-80820904D01*
X155270857Y-80916142D01*
X155318476Y-80963761D01*
X155413714Y-81011380D01*
X155604190Y-81011380D01*
X155699428Y-80963761D01*
X155747047Y-80916142D01*
X155794666Y-80820904D01*
X155794666Y-80582809D01*
X155747047Y-80487571D01*
X155699428Y-80439952D01*
X155604190Y-80392333D01*
X155413714Y-80392333D01*
X155318476Y-80439952D01*
X155270857Y-80487571D01*
X155223238Y-80582809D01*
%TO.C,U1*%
X129286095Y-100798380D02*
X129286095Y-101607904D01*
X129333714Y-101703142D01*
X129381333Y-101750761D01*
X129476571Y-101798380D01*
X129667047Y-101798380D01*
X129762285Y-101750761D01*
X129809904Y-101703142D01*
X129857523Y-101607904D01*
X129857523Y-100798380D01*
X130857523Y-101798380D02*
X130286095Y-101798380D01*
X130571809Y-101798380D02*
X130571809Y-100798380D01*
X130476571Y-100941238D01*
X130381333Y-101036476D01*
X130286095Y-101084095D01*
%TO.C,J5*%
X125904666Y-81494380D02*
X125904666Y-82208666D01*
X125857047Y-82351523D01*
X125761809Y-82446761D01*
X125618952Y-82494380D01*
X125523714Y-82494380D01*
X126857047Y-81494380D02*
X126380857Y-81494380D01*
X126333238Y-81970571D01*
X126380857Y-81922952D01*
X126476095Y-81875333D01*
X126714190Y-81875333D01*
X126809428Y-81922952D01*
X126857047Y-81970571D01*
X126904666Y-82065809D01*
X126904666Y-82303904D01*
X126857047Y-82399142D01*
X126809428Y-82446761D01*
X126714190Y-82494380D01*
X126476095Y-82494380D01*
X126380857Y-82446761D01*
X126333238Y-82399142D01*
%TO.C,C7*%
X143163333Y-104787142D02*
X143115714Y-104834761D01*
X142972857Y-104882380D01*
X142877619Y-104882380D01*
X142734761Y-104834761D01*
X142639523Y-104739523D01*
X142591904Y-104644285D01*
X142544285Y-104453809D01*
X142544285Y-104310952D01*
X142591904Y-104120476D01*
X142639523Y-104025238D01*
X142734761Y-103930000D01*
X142877619Y-103882380D01*
X142972857Y-103882380D01*
X143115714Y-103930000D01*
X143163333Y-103977619D01*
X143496666Y-103882380D02*
X144163333Y-103882380D01*
X143734761Y-104882380D01*
%TO.C,U3*%
X144272095Y-101052380D02*
X144272095Y-101861904D01*
X144319714Y-101957142D01*
X144367333Y-102004761D01*
X144462571Y-102052380D01*
X144653047Y-102052380D01*
X144748285Y-102004761D01*
X144795904Y-101957142D01*
X144843523Y-101861904D01*
X144843523Y-101052380D01*
X145224476Y-101052380D02*
X145843523Y-101052380D01*
X145510190Y-101433333D01*
X145653047Y-101433333D01*
X145748285Y-101480952D01*
X145795904Y-101528571D01*
X145843523Y-101623809D01*
X145843523Y-101861904D01*
X145795904Y-101957142D01*
X145748285Y-102004761D01*
X145653047Y-102052380D01*
X145367333Y-102052380D01*
X145272095Y-102004761D01*
X145224476Y-101957142D01*
D11*
%TO.C,U2*%
X139520000Y-105054000D02*
X140320000Y-105054000D01*
X139520000Y-105054000D02*
X137720000Y-105054000D01*
X139520000Y-108174000D02*
X138720000Y-108174000D01*
X139520000Y-108174000D02*
X140320000Y-108174000D01*
%TO.C,R15*%
X134097500Y-75962742D02*
X134097500Y-76437258D01*
X135142500Y-75962742D02*
X135142500Y-76437258D01*
%TO.C,D2*%
X124167000Y-113257000D02*
X124167000Y-111787000D01*
X124167000Y-111787000D02*
X121882000Y-111787000D01*
X121882000Y-113257000D02*
X124167000Y-113257000D01*
%TO.C,R1*%
X131840500Y-76437258D02*
X131840500Y-75962742D01*
X130795500Y-76437258D02*
X130795500Y-75962742D01*
%TO.C,D1*%
X181837000Y-103416000D02*
X181837000Y-101131000D01*
X181837000Y-101131000D02*
X180367000Y-101131000D01*
X180367000Y-101131000D02*
X180367000Y-103416000D01*
%TO.C,R18*%
X144384359Y-64756000D02*
X144691641Y-64756000D01*
X144384359Y-65772000D02*
X144691641Y-65772000D01*
%TO.C,J3*%
X136888000Y-131419000D02*
X136888000Y-130089000D01*
X136888000Y-130089000D02*
X138218000Y-130089000D01*
X139488000Y-130089000D02*
X157328000Y-130089000D01*
X157328000Y-132749000D02*
X157328000Y-130089000D01*
X139488000Y-132749000D02*
X139488000Y-130089000D01*
X139488000Y-132749000D02*
X157328000Y-132749000D01*
%TO.C,D3*%
X124167000Y-104675000D02*
X121882000Y-104675000D01*
X121882000Y-106145000D02*
X124167000Y-106145000D01*
X124167000Y-106145000D02*
X124167000Y-104675000D01*
%TO.C,C8*%
X148563000Y-95765252D02*
X148563000Y-95242748D01*
X147093000Y-95765252D02*
X147093000Y-95242748D01*
%TO.C,R3*%
X168131258Y-74153500D02*
X167656742Y-74153500D01*
X168131258Y-75198500D02*
X167656742Y-75198500D01*
%TO.C,C5*%
X135965000Y-96019252D02*
X135965000Y-95496748D01*
X134495000Y-96019252D02*
X134495000Y-95496748D01*
%TO.C,C14*%
X156578580Y-75524000D02*
X156297420Y-75524000D01*
X156578580Y-74504000D02*
X156297420Y-74504000D01*
%TO.C,R19*%
X119680258Y-111999500D02*
X119205742Y-111999500D01*
X119680258Y-113044500D02*
X119205742Y-113044500D01*
%TO.C,R17*%
X178547500Y-102853258D02*
X178547500Y-102378742D01*
X179592500Y-102853258D02*
X179592500Y-102378742D01*
%TO.C,C21*%
X145398000Y-69204580D02*
X145398000Y-68923420D01*
X144378000Y-69204580D02*
X144378000Y-68923420D01*
%TO.C,C11*%
X142280000Y-63176164D02*
X142280000Y-63391836D01*
X143296000Y-63176164D02*
X143296000Y-63391836D01*
%TO.C,J12*%
X121173000Y-56702000D02*
X119843000Y-56702000D01*
X122443000Y-54042000D02*
X127583000Y-54042000D01*
X127583000Y-56702000D02*
X127583000Y-54042000D01*
X122443000Y-56702000D02*
X127583000Y-56702000D01*
X119843000Y-56702000D02*
X119843000Y-55372000D01*
X122443000Y-56702000D02*
X122443000Y-54042000D01*
%TO.C,R7*%
X160505500Y-126446258D02*
X160505500Y-125971742D01*
X161550500Y-126446258D02*
X161550500Y-125971742D01*
%TO.C,R11*%
X171710500Y-126446258D02*
X171710500Y-125971742D01*
X170665500Y-126446258D02*
X170665500Y-125971742D01*
%TO.C,C17*%
X149427420Y-58736000D02*
X149708580Y-58736000D01*
X149427420Y-57716000D02*
X149708580Y-57716000D01*
%TO.C,R16*%
X144384359Y-63256000D02*
X144691641Y-63256000D01*
X144384359Y-64272000D02*
X144691641Y-64272000D01*
%TO.C,J17*%
X109160000Y-104145000D02*
X109160000Y-101545000D01*
X111820000Y-101545000D02*
X109160000Y-101545000D01*
X111820000Y-105415000D02*
X111820000Y-106745000D01*
X111820000Y-106745000D02*
X110490000Y-106745000D01*
X111820000Y-104145000D02*
X109160000Y-104145000D01*
X111820000Y-104145000D02*
X111820000Y-101545000D01*
%TO.C,R2*%
X168131258Y-73420500D02*
X167656742Y-73420500D01*
X168131258Y-72375500D02*
X167656742Y-72375500D01*
%TO.C,R9*%
X165585500Y-126446258D02*
X165585500Y-125971742D01*
X166630500Y-126446258D02*
X166630500Y-125971742D01*
%TO.C,J1*%
X116584000Y-94269000D02*
X106663000Y-94269000D01*
X108723000Y-84149000D02*
X108723000Y-94269000D01*
X112392000Y-92984000D02*
X112346000Y-92937000D01*
X107223000Y-84149000D02*
X107223000Y-94269000D01*
X106663000Y-84149000D02*
X106663000Y-94269000D01*
X110084000Y-90675000D02*
X110049000Y-90640000D01*
X112598000Y-92779000D02*
X112562000Y-92744000D01*
X113624000Y-84149000D02*
X113624000Y-94269000D01*
X106423000Y-83909000D02*
X106423000Y-84409000D01*
X107163000Y-83909000D02*
X106423000Y-83909000D01*
X110300000Y-90482000D02*
X110254000Y-90435000D01*
X116584000Y-84149000D02*
X116584000Y-94269000D01*
X116584000Y-84149000D02*
X106663000Y-84149000D01*
X110639000Y-88244001D02*
G75*
G03*
X112006042Y-88244427I684000J1535001D01*
G01*
X109643000Y-86709000D02*
G75*
G03*
X109788244Y-87392318I1680000J0D01*
G01*
X112858000Y-87393000D02*
G75*
G03*
X112858427Y-86025958I-1534993J684001D01*
G01*
X112007000Y-85174000D02*
G75*
G03*
X110639958Y-85173573I-684001J-1534993D01*
G01*
X109788000Y-86025000D02*
G75*
G03*
X109642747Y-86737805I1535001J-683999D01*
G01*
X113003000Y-91709000D02*
G75*
G03*
X113003000Y-91709000I-1680000J0D01*
G01*
%TO.C,R21*%
X119617258Y-105932500D02*
X119142742Y-105932500D01*
X119617258Y-104887500D02*
X119142742Y-104887500D01*
%TO.C,C10*%
X139956000Y-72276580D02*
X139956000Y-71995420D01*
X138936000Y-72276580D02*
X138936000Y-71995420D01*
%TO.C,C16*%
X161598000Y-63273420D02*
X161598000Y-63554580D01*
X160578000Y-63273420D02*
X160578000Y-63554580D01*
%TO.C,R4*%
X129808500Y-76437258D02*
X129808500Y-75962742D01*
X128763500Y-76437258D02*
X128763500Y-75962742D01*
%TO.C,C2*%
X132869000Y-106352748D02*
X132869000Y-106875252D01*
X134339000Y-106352748D02*
X134339000Y-106875252D01*
%TO.C,R14*%
X138698500Y-124984742D02*
X138698500Y-125459258D01*
X137653500Y-124984742D02*
X137653500Y-125459258D01*
%TO.C,J16*%
X111820000Y-111262000D02*
X109160000Y-111262000D01*
X111820000Y-111262000D02*
X111820000Y-108662000D01*
X111820000Y-108662000D02*
X109160000Y-108662000D01*
X111820000Y-113862000D02*
X110490000Y-113862000D01*
X111820000Y-112532000D02*
X111820000Y-113862000D01*
X109160000Y-111262000D02*
X109160000Y-108662000D01*
%TO.C,C1*%
X121385000Y-97289252D02*
X121385000Y-96766748D01*
X119915000Y-97289252D02*
X119915000Y-96766748D01*
%TO.C,C4*%
X136220000Y-106219420D02*
X136220000Y-106500580D01*
X135200000Y-106219420D02*
X135200000Y-106500580D01*
%TO.C,C9*%
X146126000Y-106219420D02*
X146126000Y-106500580D01*
X145106000Y-106219420D02*
X145106000Y-106500580D01*
%TO.C,R13*%
X155555500Y-127846258D02*
X155555500Y-127371742D01*
X156600500Y-127846258D02*
X156600500Y-127371742D01*
%TO.C,C6*%
X141411420Y-110172000D02*
X141692580Y-110172000D01*
X141411420Y-109152000D02*
X141692580Y-109152000D01*
%TO.C,C12*%
X142280000Y-65871836D02*
X142280000Y-65656164D01*
X143296000Y-65871836D02*
X143296000Y-65656164D01*
%TO.C,C3*%
X133679000Y-96019252D02*
X133679000Y-95496748D01*
X132209000Y-96019252D02*
X132209000Y-95496748D01*
%TO.C,J8*%
X164906000Y-72589000D02*
X162246000Y-72589000D01*
X164906000Y-77789000D02*
X163576000Y-77789000D01*
X164906000Y-75189000D02*
X162246000Y-75189000D01*
X162246000Y-75189000D02*
X162246000Y-72589000D01*
X164906000Y-75189000D02*
X164906000Y-72589000D01*
X164906000Y-76459000D02*
X164906000Y-77789000D01*
%TO.C,R20*%
X145050742Y-57331500D02*
X145525258Y-57331500D01*
X145050742Y-56286500D02*
X145525258Y-56286500D01*
%TO.C,L1*%
X138178000Y-72235779D02*
X138178000Y-71910221D01*
X137158000Y-72235779D02*
X137158000Y-71910221D01*
%TO.C,X1*%
X141663000Y-64133000D02*
X141663000Y-64895000D01*
X139913000Y-64133000D02*
X139913000Y-64895000D01*
%TO.C,J2*%
X168656000Y-52010000D02*
X169986000Y-52010000D01*
X167386000Y-52010000D02*
X167386000Y-54670000D01*
X169986000Y-52010000D02*
X169986000Y-53340000D01*
X154626000Y-52010000D02*
X154626000Y-54670000D01*
X167386000Y-54670000D02*
X154626000Y-54670000D01*
X167386000Y-52010000D02*
X154626000Y-52010000D01*
%TO.C,SW1*%
X107513000Y-68250000D02*
X107513000Y-69950000D01*
X106463000Y-66400000D02*
X105673000Y-66400000D01*
X107513000Y-71250000D02*
X107513000Y-71450000D01*
X104663000Y-67000000D02*
X104663000Y-72700000D01*
X105673000Y-73300000D02*
X106463000Y-73300000D01*
%TO.C,C19*%
X162628000Y-63273420D02*
X162628000Y-63554580D01*
X163648000Y-63273420D02*
X163648000Y-63554580D01*
%TO.C,C15*%
X138062580Y-67004000D02*
X137781420Y-67004000D01*
X138062580Y-68024000D02*
X137781420Y-68024000D01*
%TO.C,R10*%
X168125500Y-126446258D02*
X168125500Y-125971742D01*
X169170500Y-126446258D02*
X169170500Y-125971742D01*
%TO.C,J15*%
X181416000Y-94941000D02*
X178756000Y-94941000D01*
X178756000Y-97541000D02*
X178756000Y-94941000D01*
X181416000Y-100141000D02*
X180086000Y-100141000D01*
X181416000Y-97541000D02*
X181416000Y-94941000D01*
X181416000Y-98811000D02*
X181416000Y-100141000D01*
X181416000Y-97541000D02*
X178756000Y-97541000D01*
%TO.C,U4*%
X158088000Y-61774000D02*
X158088000Y-62724000D01*
X158088000Y-71994000D02*
X158088000Y-71044000D01*
X148818000Y-71994000D02*
X147868000Y-71994000D01*
X157138000Y-71994000D02*
X158088000Y-71994000D01*
X147868000Y-61774000D02*
X147868000Y-62724000D01*
X147868000Y-71994000D02*
X147868000Y-71044000D01*
X148818000Y-61774000D02*
X147868000Y-61774000D01*
X147868000Y-62724000D02*
X146528000Y-62724000D01*
X157138000Y-61774000D02*
X158088000Y-61774000D01*
%TO.C,J4*%
X162348000Y-132749000D02*
X162348000Y-130089000D01*
X159748000Y-131419000D02*
X159748000Y-130089000D01*
X162348000Y-130089000D02*
X175108000Y-130089000D01*
X162348000Y-132749000D02*
X175108000Y-132749000D01*
X159748000Y-130089000D02*
X161078000Y-130089000D01*
X175108000Y-132749000D02*
X175108000Y-130089000D01*
%TO.C,C13*%
X149492580Y-75524000D02*
X149211420Y-75524000D01*
X149492580Y-74504000D02*
X149211420Y-74504000D01*
%TO.C,J9*%
X131004000Y-68321000D02*
X131004000Y-66991000D01*
X131004000Y-69591000D02*
X131004000Y-72191000D01*
X131004000Y-66991000D02*
X132334000Y-66991000D01*
X133664000Y-69591000D02*
X133664000Y-72191000D01*
X131004000Y-69591000D02*
X133664000Y-69591000D01*
X131004000Y-72191000D02*
X133664000Y-72191000D01*
%TO.C,J10*%
X176336000Y-61468000D02*
X176336000Y-56328000D01*
X176336000Y-61468000D02*
X173676000Y-61468000D01*
X173676000Y-64068000D02*
X173676000Y-62738000D01*
X176336000Y-56328000D02*
X173676000Y-56328000D01*
X175006000Y-64068000D02*
X173676000Y-64068000D01*
X173676000Y-61468000D02*
X173676000Y-56328000D01*
%TO.C,R5*%
X131049500Y-86851258D02*
X131049500Y-86376742D01*
X132094500Y-86851258D02*
X132094500Y-86376742D01*
%TO.C,J13*%
X175962000Y-76708000D02*
X175962000Y-71568000D01*
X178622000Y-71568000D02*
X175962000Y-71568000D01*
X178622000Y-76708000D02*
X178622000Y-71568000D01*
X178622000Y-79308000D02*
X177292000Y-79308000D01*
X178622000Y-77978000D02*
X178622000Y-79308000D01*
X178622000Y-76708000D02*
X175962000Y-76708000D01*
%TO.C,C20*%
X142213000Y-72209252D02*
X142213000Y-71686748D01*
X140743000Y-72209252D02*
X140743000Y-71686748D01*
%TO.C,R8*%
X163045500Y-126446258D02*
X163045500Y-125971742D01*
X164090500Y-126446258D02*
X164090500Y-125971742D01*
%TO.C,C18*%
X145798000Y-61354580D02*
X145798000Y-61073420D01*
X144778000Y-61354580D02*
X144778000Y-61073420D01*
%TO.C,J7*%
X121860000Y-69591000D02*
X121860000Y-72191000D01*
X121860000Y-68321000D02*
X121860000Y-66991000D01*
X121860000Y-69591000D02*
X124520000Y-69591000D01*
X121860000Y-66991000D02*
X123190000Y-66991000D01*
X121860000Y-72191000D02*
X124520000Y-72191000D01*
X124520000Y-69591000D02*
X124520000Y-72191000D01*
%TO.C,R6*%
X128509500Y-86851258D02*
X128509500Y-86376742D01*
X129554500Y-86851258D02*
X129554500Y-86376742D01*
%TO.C,C22*%
X150370000Y-95390580D02*
X150370000Y-95109420D01*
X149350000Y-95390580D02*
X149350000Y-95109420D01*
%TO.C,R12*%
X173205500Y-126446258D02*
X173205500Y-125971742D01*
X174250500Y-126446258D02*
X174250500Y-125971742D01*
%TO.C,J6*%
X172508000Y-81829000D02*
X172508000Y-84489000D01*
X175108000Y-84489000D02*
X173778000Y-84489000D01*
X172508000Y-81829000D02*
X154668000Y-81829000D01*
X175108000Y-83159000D02*
X175108000Y-84489000D01*
X154668000Y-81829000D02*
X154668000Y-84489000D01*
X172508000Y-84489000D02*
X154668000Y-84489000D01*
%TO.C,U1*%
X128544000Y-93399000D02*
X128544000Y-94659000D01*
X128544000Y-100219000D02*
X128544000Y-98959000D01*
X124784000Y-100219000D02*
X128544000Y-100219000D01*
X122534000Y-93399000D02*
X128544000Y-93399000D01*
%TO.C,J5*%
X150664000Y-81829000D02*
X150664000Y-84489000D01*
X150664000Y-84489000D02*
X127744000Y-84489000D01*
X150664000Y-81829000D02*
X127744000Y-81829000D01*
X127744000Y-81829000D02*
X127744000Y-84489000D01*
X153264000Y-83159000D02*
X153264000Y-84489000D01*
X153264000Y-84489000D02*
X151934000Y-84489000D01*
%TO.C,C7*%
X142595000Y-106418748D02*
X142595000Y-106941252D01*
X144065000Y-106418748D02*
X144065000Y-106941252D01*
%TO.C,U3*%
X143388000Y-100184000D02*
X143388000Y-98924000D01*
X143388000Y-93364000D02*
X143388000Y-94624000D01*
X139628000Y-100184000D02*
X143388000Y-100184000D01*
X137378000Y-93364000D02*
X143388000Y-93364000D01*
%TD*%
M02*
