M48
; DRILL file {KiCad (6.0.9)} date Thu Jun 12 12:44:00 2025
; FORMAT={-:-/ absolute / metric / decimal}
; #@! TF.CreationDate,2025-06-12T12:44:00-07:00
; #@! TF.GenerationSoftware,Kicad,Pcbnew,(6.0.9)
; #@! TF.FileFunction,MixedPlating,1,2
FMAT,2
METRIC
; #@! TA.AperFunction,Plated,PTH,ViaDrill
T1C0.300
; #@! TA.AperFunction,Plated,PTH,ViaDrill
T2C0.400
; #@! TA.AperFunction,Plated,PTH,ComponentDrill
T3C1.000
; #@! TA.AperFunction,Plated,PTH,ComponentDrill
T4C1.300
; #@! TA.AperFunction,Plated,PTH,ComponentDrill
T5C3.200
; #@! TA.AperFunction,NonPlated,NPTH,ComponentDrill
T6C0.900
%
G90
G05
T1
X109.22Y-95.25
X111.252Y-95.25
X113.03Y-95.25
X120.142Y-94.742
X121.158Y-93.726
X121.158Y-94.742
X132.436Y-93.472
X132.916Y-108.9
X133.452Y-93.472
X134.186Y-108.9
X134.722Y-93.472
X135.71Y-108.392
X135.738Y-93.472
X137.668Y-92.71
X138.938Y-92.71
X143.778Y-109.202
X143.778Y-110.218
X145.108Y-108.392
X147.32Y-93.218
X148.336Y-93.218
X149.86Y-93.218
T2
X109.728Y-67.31
X111.506Y-69.596
X111.506Y-73.406
X120.396Y-76.708
X120.396Y-77.978
X123.952Y-76.708
X123.952Y-77.978
X124.968Y-105.41
X124.968Y-112.522
X132.842Y-79.248
X135.636Y-79.248
X135.89Y-67.564
X139.446Y-69.85
X139.446Y-106.68
X140.208Y-56.896
X141.478Y-69.812
X141.98Y-67.05
X142.24Y-61.976
X143.26Y-56.9
X143.51Y-74.422
X143.516Y-68.84
X144.272Y-72.39
X144.526Y-124.46
X145.034Y-59.182
X145.388Y-58.166
X146.05Y-74.422
X146.304Y-72.39
X146.838Y-58.166
X147.066Y-124.46
X148.336Y-103.124
X148.336Y-107.188
X149.352Y-71.12
X150.107Y-62.582
X152.908Y-62.992
X153.828Y-59.124
X153.924Y-71.12
X156.21Y-67.31
X156.21Y-68.834
X156.21Y-69.85
X157.226Y-63.5
X158.75Y-77.978
X158.75Y-80.01
X160.782Y-67.31
X160.782Y-68.834
X160.782Y-69.85
X162.907Y-80.933
X163.576Y-85.598
X163.576Y-87.63
X164.338Y-80.264
X173.736Y-75.438
X176.276Y-88.138
X182.626Y-101.854
T3
X110.49Y-102.875
X110.49Y-105.415
X110.49Y-109.992
X110.49Y-112.532
X121.173Y-55.372
X123.19Y-68.321
X123.19Y-70.861
X123.713Y-55.372
X126.253Y-55.372
X129.074Y-83.159
X131.614Y-83.159
X132.334Y-68.321
X132.334Y-70.861
X134.154Y-83.159
X136.694Y-83.159
X138.218Y-131.419
X139.234Y-83.159
X140.758Y-131.419
X141.774Y-83.159
X143.298Y-131.419
X144.314Y-83.159
X145.838Y-131.419
X146.854Y-83.159
X148.378Y-131.419
X149.394Y-83.159
X150.918Y-131.419
X151.934Y-83.159
X153.458Y-131.419
X155.956Y-53.34
X155.998Y-83.159
X155.998Y-131.419
X158.496Y-53.34
X158.538Y-83.159
X161.036Y-53.34
X161.078Y-83.159
X161.078Y-131.419
X163.576Y-53.34
X163.576Y-73.919
X163.576Y-76.459
X163.618Y-83.159
X163.618Y-131.419
X166.116Y-53.34
X166.158Y-83.159
X166.158Y-131.419
X168.656Y-53.34
X168.698Y-83.159
X168.698Y-131.419
X171.238Y-83.159
X171.238Y-131.419
X173.778Y-83.159
X173.778Y-131.419
X175.006Y-57.658
X175.006Y-60.198
X175.006Y-62.738
X177.292Y-72.898
X177.292Y-75.438
X177.292Y-77.978
X180.086Y-96.271
X180.086Y-98.811
T4
X111.323Y-86.709
X111.323Y-91.709
T5
X108.146Y-55.359
X108.146Y-137.909
X184.346Y-55.359
X184.346Y-137.909
T6
X106.063Y-68.35
X106.063Y-71.35
T0
M30
